<svg width="593" height="591" fill="none" xmlns="http://www.w3.org/2000/svg"><path d="M266.863 196.847c-.356.09-.622.535-.622.535-3.466 1.252-6.932 2.503-10.664 4.2-1.689.804-3.38.096-4.183-1.593-.804-1.688-.096-3.379 1.592-4.183 3.733-1.697 7.199-2.948 11.021-4.29 1.777-.448 3.469.26 3.827 1.683.714 1.332-.084 2.668-.971 3.648zm37.236 263.273c1.243-1.069 1.506-3.026.081-4.18-1.07-1.243-3.027-1.506-4.18-.081-5.504 5.169-11.899 9.806-18.563 13.376-1.688.804-1.951 2.761-1.237 4.094.714 1.333 2.761 1.951 4.094 1.237 3.998-2.142 7.551-4.55 11.37-7.403 2.841-2.229 6.039-4.548 8.435-7.043zm15.617-19.062c4.255-7.124 7.71-14.423 9.828-22.52.353-1.602-.45-3.29-2.052-3.643-1.602-.353-3.29.451-3.643 2.053-1.942 7.296-5.131 14.151-9.12 20.829-.798 1.335-.26 3.469 1.075 4.266.98.888 2.403.529 3.38-.095l.532-.89zm-55.69 38.617c-.448-1.778-2.14-2.487-3.917-2.039-2.845.717-5.69 1.434-8.624 1.796-4.357.72-9.158 1.174-13.784.827-1.512.003-3.11 1.162-3.018 3.029.003 1.512 1.162 3.111 3.03 3.018 4.981.258 10.138-.286 14.85-1.095 3.29-.451 6.135-1.168 9.335-1.975.356-.089.711-.179.977-.624 1.067-.269 1.509-1.515 1.151-2.937zm67.785-85.155c-.46-7.826-2.166-16.094-4.938-24.093-.448-1.778-2.495-2.396-3.828-1.682-1.777.448-2.396 2.495-1.682 3.827 2.593 7.288 4.12 14.845 4.845 22.226.093 1.867 1.518 3.021 3.386 2.928l1.777-.448c.177-.801.709-1.691.44-2.758zm-114.386 86.311c.352-1.601-.451-3.29-2.053-3.642-7.297-1.943-14.417-4.686-21.095-8.676-1.336-.798-3.469-.26-4.177 1.431-.798 1.336-.26 3.469 1.431 4.178 7.389 3.81 14.954 6.819 22.341 9.117.8.177 1.867-.092 2.489-.627l1.064-1.781zm-101.785 71.79c-1.793-7.111-3.319-14.668-4.58-22.67-.448-1.778-1.873-2.931-3.651-2.483-1.778.448-2.931 1.873-2.483 3.651a251.367 251.367 0 0 0 4.669 23.026c.448 1.778 2.139 2.486 3.917 2.038.355-.09.711-.179.977-.624.977-.625 1.419-1.871 1.151-2.938zm59.499-92.52c1.154-1.425.706-3.203-.364-4.446-5.79-4.97-11.671-10.295-16.484-15.889-1.07-1.243-3.027-1.506-4.27-.436-1.243 1.07-1.506 3.027-.436 4.27a129.246 129.246 0 0 0 17.464 16.776c.98.887 2.847.795 3.824.17l.266-.445zm-66.97 46.376c-.37-7.47-.83-15.296-.934-23.211-.092-1.867-1.517-3.021-3.029-3.018-1.868.092-3.021 1.518-3.018 3.03.193 8.27.297 16.186 1.113 23.922.092 1.867 1.517 3.021 3.385 2.928.711-.179 1.067-.269 1.688-.803.177-.801.708-1.692.795-2.848zm207.279-157.373c-.624-.977-1.159-1.598-1.784-2.576-4.102-5.773-9.181-10.921-14.526-15.625-1.426-1.153-3.293-1.061-4.447.364-1.153 1.426-1.061 3.293.365 4.447 4.9 4.437 9.534 9.32 13.457 14.382.624.977 1.159 1.598 1.784 2.576 1.069 1.243 3.116 1.861 4.359.792 1.599-1.16 1.862-3.117.792-4.36zM107.724 459.697c.43-7.294.771-14.943 1.468-22.682l.176-.801c.353-1.602-1.162-3.111-2.763-3.463-1.602-.353-3.111 1.162-3.464 2.763l-.176.801c-.697 7.739-1.393 15.478-1.824 22.772.003 1.512 1.162 3.11 3.03 3.018.801.176 1.422-.359 2.133-.538.801.176 1.333-.714 1.42-1.87zm37.101-38.848c-3.926-6.574-7.23-13.683-10.089-20.526-.804-1.688-2.495-2.396-3.828-1.682-1.688.803-2.396 2.495-1.682 3.827 2.683 7.644 6.342 14.663 10.358 21.592.714 1.333 2.761 1.952 4.449 1.148l.356-.09c.887-.98 1.15-2.937.436-4.269zM280.532 321.6c.798-1.335.26-3.469-1.431-4.177-7.389-3.81-15.311-6.73-22.873-8.227-1.602-.353-3.2.806-3.553 2.408-.353 1.601.807 3.2 2.408 3.553 7.207 1.587 14.683 4.241 21.271 7.874 1.246.443 2.403.529 3.29-.451.622-.534.977-.624.888-.98zm-165.336 92.724c2.478-6.675 5.932-13.975 9.832-21.008.798-1.336.26-3.469-1.075-4.267-1.336-.798-3.469-.26-4.267 1.075-4.166 7.479-7.621 14.779-10.364 21.899-.708 1.691.095 3.379 1.787 4.088.89.531 2.312.173 2.934-.362.621-.535.887-.98 1.153-1.425zM235.33 310.303c-.093-1.867-1.518-3.021-3.386-2.928-7.825.459-15.738 2.075-23.737 4.848-1.778.448-2.486 2.139-2.038 3.917.448 1.778 2.14 2.486 3.917 2.038 7.288-2.593 14.845-4.12 22.315-4.49.711-.179 1.067-.268 1.688-.803.978-.625 1.509-1.515 1.241-2.582zm-97.354 63.866c4.525-6.056 9.76-12.292 15.175-17.816 1.243-1.07 1.06-3.293-.009-4.536-1.07-1.243-3.293-1.061-4.536.009-5.415 5.524-10.65 11.76-15.44 18.261-1.154 1.426-.705 3.204.72 4.357.98.887 2.492.885 3.735-.185l.355-.09zm-9.242 3.842c-1.171-7.646-1.63-15.472-1.2-22.765-.003-1.512-1.162-3.111-3.029-3.018-1.512.002-3.111 1.162-3.374 3.119-.251 8.005-.058 16.276 1.558 24.188.448 1.778 1.874 2.931 3.652 2.483.355-.089 1.066-.269 1.332-.714.532-.89 1.33-2.226 1.061-3.293zm61.53-54.459c-.714-1.332-2.761-1.951-4.094-1.237-6.574 3.926-13.414 8.297-19.985 13.735-1.243 1.069-1.506 3.027-.436 4.27 1.07 1.243 3.027 1.506 4.27.436 6.305-4.992 12.789-9.274 19.007-13.11l.356-.09c1.243-1.069 1.596-2.671.882-4.004zm-59.394 8.919c1.943-7.297 4.686-14.417 7.785-21.627.709-1.691-.095-3.379-1.431-4.177-1.691-.708-3.379.095-4.177 1.431-3.365 7.655-6.374 15.221-8.317 22.517-.353 1.602.451 3.29 2.053 3.643.8.176 1.867-.093 2.489-.628 1.156.087 1.422-.358 1.598-1.159zm18.953-41.837c4.079-6.322 8.513-12.734 13.749-18.97 1.153-1.425.705-3.203-.365-4.446-1.425-1.154-3.203-.706-4.446.364-5.235 6.236-9.936 13.093-14.015 19.415-.798 1.336-.615 3.559 1.076 4.267.98.888 2.402.529 3.379-.095.356-.09.711-.179.622-.535zm29.458-36.165c5.414-5.525 11.274-10.783 17.224-15.686 1.243-1.07 1.506-3.027.436-4.27-1.07-1.243-3.027-1.506-4.27-.437-6.215 5.349-12.075 10.607-17.49 16.132-1.243 1.069-1.061 3.292.009 4.535 1.07 1.243 2.937 1.151 3.825.171-.09-.356-.09-.356.266-.445zm56.652-46.801c-.714-1.333-2.761-1.952-4.093-1.238-6.93 4.016-13.414 8.297-20.254 12.668-1.243 1.07-1.862 3.117-.792 4.36 1.07 1.243 3.116 1.862 4.36.792 6.394-4.637 12.968-8.563 19.897-12.578l.356-.09c.888-.98 1.24-2.582.526-3.914zM127.625 588.173s.09.356 0 0c-1.598 1.159-3.2.807-4.359-.792-1.249-1.954-3.212-5.241-5.713-10.661-.803-1.689-.095-3.38 1.593-4.184 1.688-.803 3.38-.095 4.183 1.593 1.697 3.732 3.75 7.375 5.088 9.685 1.16 1.598.896 3.556-.792 4.359zM493.176 86.486c.532-.89.708-1.692.529-2.403-.182-2.223-1.076-4.267-2.591-5.776-2.139-2.486-5.432-3.547-9.612-3.628-38.243-.193-76.499-6.434-113.953-12.5-29.892-4.567-60.674-9.666-91.451-11.741-1.512.002-5.781-.434-7.554 3.038-2.127 3.562.55 8.181 3.848 12.266a238.169 238.169 0 0 0 12.212 13.94c6.328 7.103 13.101 14.471 16.223 19.357 2.143 3.998 3.929 8.086 3.929 8.086.804 1.688 1.252 3.466 1.966 4.799.448 1.778 2.584 2.752 4.273 1.948 1.778-.448 3.821-1.341 5.689-1.434l2.133-.537c4.001-.631 88.378-13.955 124.387-19.627 6.224-.813 10.67-1.177 15.027-1.897 11.025-1.266 22.051-2.533 32.811-3.354l1.778-.448c.09.356 0 0 .356-.09zm-182.288 17.959c-.09-.356-1.877-4.443-4.464-8.707-3.301-5.597-10.164-13.322-16.938-20.69-4.099-4.261-7.843-8.612-10.696-12.431-2.674-3.108-3.478-4.796-4.102-5.773.355-.09.711-.18 1.156.087 30.331 1.809 61.114 6.908 90.65 11.565 37.454 6.065 76.421 12.127 115.109 12.587 1.157.086 1.958.263 2.758.439-9.248.818-18.05 1.902-27.298 2.72-4.447.365-8.803 1.085-15.027 1.897-36.009 5.672-120.475 18.641-124.742 19.717l-2.489.627-3.2.807-.717-2.845z" fill="#1C287D"/><path d="M493.346 82.66c-.624-.976-1.96-1.774-3.027-1.505-11.115.91-22.141 2.177-33.167 3.443-4.446.364-8.802 1.084-15.027 1.897-.355.09-49.526 6.053-124.741 19.716-1.067.269-4.713.81-8.89 2.241-1.778.448-2.486 2.139-2.038 3.917 0 0 .358 1.422.361 2.934-.242 12.541-14.416 41.829-14.327 42.184-4.96 10.326-7.793 17.091-9.031 21.185-1.061 3.292-1.676 6.851.908 9.603 3.385 2.929 8.274 1.318 12.807-.202 17.686-6.349 31.99-14.114 37.587-17.415l.356-.09.711-.179c.711-.179 1.688-.804 3.021-1.518.711-.179 1.333-.714 2.044-.893l-.269-1.067-2.411-5.065c-2.31 1.339-3.732 1.697-4.709 2.322l-1.067.269-.711.179c-5.331 2.856-19.546 10.977-36.966 16.88-2.934.361-4.623 1.165-5.779 1.078.176-.8.263-1.957 1.414-4.894 1.592-4.183 3.983-9.702 7.97-17.892.442-1.246 14.882-30.979 15.122-45.031-.09-.356.176-.801.086-1.157l4.978-1.254c75.216-13.663 123.676-19.448 124.387-19.627 6.224-.813 10.67-1.177 15.027-1.897 3.29-.45 6.669-.546 9.603-.908 7.733-2.327 13.333-4.116 15.021-4.92.356-.09 2.4-.983 5.068-.9 1.512-.002 2.668.085 3.113.35 1.249 1.955-6.209 8.373-11.893 12.83 2.31-1.338 4.354-2.231 6.398-3.125 1.333-.714 2.665-1.428 3.908-2.497 3.553-2.409 5.95-4.903 4.698-8.37 0 0-.09-.355-.535-.621z" fill="#1C287D"/><path d="M367.582 218.355c6.302-6.505 15.087-16.661 25.737-28.421 26.004-28.866 61.324-68.778 82.815-85.539.356-.09.622-.535.977-.625 2.576-1.783 6.927-5.527 10.656-8.736 2.13-2.05 3.639-3.564 4.793-4.99.887-.98 3.105-4.186 1.677-6.851-1.249-1.954-3.562-2.128-5.785-1.945-3.024.005-5.157.543-6.135 1.167-9.687 3.576-146.036 46.261-148.435 47.244-.356.09-2.755 1.073-5.776 2.591 0 0-3.021 1.517-4.53 3.032-2.663 2.94-.876 7.028-.072 8.716 1.338 2.31 3.212 5.241 5.264 8.884 3.033 4.53 6.6 9.681 9.101 15.102 4.018 8.441 7.779 21.864 10.913 32.797 2.507 8.444 4.12 14.845 5.727 18.221.893 2.044 2.408 3.553 4.455 4.172 2.402.529 4.536-.009 6.134-1.168.619-2.047 1.862-3.117 2.484-3.651zm-7.566-3.01c-1.428-2.665-3.22-9.777-5.458-17.154-3.223-11.289-7.074-25.067-11.182-33.864-2.59-5.776-6.247-11.283-9.37-16.169-2.318-3.197-4.995-7.817-5.799-9.505.622-.535 1.333-.714 1.954-1.249 2.31-1.338 4.444-1.876 4.799-1.966 1.067-.269 138.037-43.488 148.791-47.333l1.067-.27c-.887.98-1.775 1.96-3.374 3.12-3.463 2.764-6.836 5.883-9.057 7.577-.355.09-.621.535-.977.625-21.757 17.206-57.433 57.208-83.347 86.429-10.294 11.671-19.169 21.471-25.471 27.976-1.154 1.425-2.131 2.049-2.486 2.139l-.09-.356zm-63.391-35.454c8.071-11.488 16.408-23.422 24.479-34.91l-24.479 34.91z" fill="#1C287D"/><path d="M298.498 182.823c-.977.625-2.489.627-3.825-.17-1.425-1.154-1.963-3.287-.809-4.713l24.479-34.91c1.154-1.425 3.287-1.963 4.713-.81 1.425 1.154 1.963 3.287.809 4.712l-24.48 34.911c-.266.445-.621.535-.887.98zm5.686-2.946c7.806-11.043 15.255-21.997 23.061-33.04l-23.061 33.04z" fill="#1C287D"/><path d="M306.057 182.808c-.977.625-2.489.628-3.824-.17-1.425-1.154-1.963-3.287-.81-4.712l23.061-33.04c1.153-1.426 3.287-1.963 4.712-.81 1.425 1.154 1.963 3.287.809 4.712l-23.06 33.04c-.266.446-.622.535-.888.98zm13.232-10.519c3.813-5.877 7.626-11.755 11.795-17.722l-11.795 17.722z" fill="#1C287D"/><path d="M321.073 174.864c-.977.624-2.489.627-3.735.185-1.425-1.153-1.873-2.931-.81-4.712l11.795-17.721c1.154-1.426 3.287-1.963 4.712-.81 1.425 1.154 1.874 2.932.81 4.712L322.05 174.24c-.356.089-.622.534-.977.624zm11.28-7.759c1.685-2.316 3.281-4.987 4.967-7.302l-4.967 7.302z" fill="#1C287D"/><path d="M334.226 170.037c-.977.624-2.489.627-3.824-.171-1.426-1.153-1.963-3.287-.81-4.712l4.967-7.302c1.153-1.426 3.287-1.963 4.712-.81 1.425 1.154 1.963 3.287.809 4.712l-4.966 7.303c-.266.445-.532.89-.888.98z" fill="#1C287D"/><path d="M340.355 165.845l-2.411-5.065-5.065 2.411c-14.483 7.054-25.59 12.5-33.5 15.628-1.332.714-2.755 1.073-3.732 1.697 6.299-8.016 13.662-17.814 19.516-26.096 4.259-5.611 8.427-11.578 9.315-12.558l1.243-1.07c-.804-1.688-.807-3.2-.275-4.09.622-.535 2.22-1.694 3.553-2.408 2.666-1.429 5.155-2.056 5.51-2.146 2.845-.716 138.748-43.667 148.436-47.243.355-.09 2.399-.983 5.067-.9 1.512-.002 2.669.084 3.114.35.624.977-1.061 3.293-3.813 5.877 1.688-.803 3.287-1.963 5.331-2.856l-2.68-6.131c-37.865 11.812-161.948 50.649-164.703 51.722a79.096 79.096 0 0 0-3.021 1.517l-.355.09-.356.09s-1.864 1.604-1.775 1.96c-1.509 1.515-4.614 5.701-10.202 13.538-6.475 8.817-14.281 19.86-20.935 27.966-1.42 1.871-2.663 2.94-3.195 3.831-.621.535-.887.98-1.153 1.425-1.42 1.871-.616 3.559-.081 4.18 1.428 2.666 4.984 1.77 6.05 1.501 1.778-.448 4.267-1.076 7.288-2.594 6.843-2.859 17.418-7.415 31.546-14.379 3.732-1.697 7.73-3.839 11.818-5.626-.356.09-.446-.266-.535-.621z" fill="#1C287D"/></svg>