<svg width="584" height="583" fill="none" xmlns="http://www.w3.org/2000/svg"><path d="M318.899 192.022c.358.081.634.52.634.52 3.494 1.171 6.988 2.343 10.759 3.953 1.706.764 3.381.017 4.145-1.689.764-1.707.017-3.381-1.689-4.145-3.77-1.611-7.265-2.782-11.116-4.035-1.788-.407-3.463.341-3.788 1.771-.683 1.349.145 2.665 1.055 3.625zm-31.142 264.063c-1.267-1.04-1.576-2.991-.177-4.177 1.04-1.268 2.991-1.576 4.177-.178 5.622 5.041 12.122 9.529 18.866 12.944 1.707.765 2.015 2.715 1.332 4.064-.683 1.349-2.715 2.015-4.064 1.332-4.046-2.05-7.654-4.375-11.538-7.139-2.892-2.163-6.142-4.407-8.596-6.846zm-16.053-18.696c-4.419-7.023-8.041-14.241-10.346-22.287-.39-1.593.374-3.3 1.967-3.689 1.593-.39 3.3.374 3.689 1.967 2.111 7.25 5.457 14.029 9.6 20.613.828 1.317.34 3.462-.977 4.291-.959.91-2.389.584-3.38-.018l-.553-.877zm56.568 37.319c.407-1.788 2.081-2.535 3.869-2.128 2.86.651 5.721 1.302 8.662 1.596 4.373.619 9.184.961 13.8.508 1.511-.032 3.136 1.09 3.087 2.959.032 1.511-1.09 3.136-2.959 3.087-4.974.372-10.142-.052-14.872-.752-3.299-.375-6.16-1.026-9.378-1.758-.357-.082-.715-.163-.991-.602-1.073-.244-1.544-1.48-1.218-2.91zm-69.735-83.565c.279-7.834 1.793-16.14 4.38-24.201.406-1.787 2.438-2.453 3.787-1.77 1.788.407 2.454 2.439 1.771 3.788-2.424 7.346-3.776 14.936-4.331 22.331-.049 1.869-1.447 3.055-3.316 3.006l-1.788-.407c-.195-.797-.747-1.675-.503-2.747zm116.35 83.644c-.389-1.593.375-3.299 1.968-3.689 7.25-2.11 14.305-5.017 20.889-9.16 1.317-.829 3.462-.34 4.209 1.334.829 1.317.34 3.462-1.334 4.209-7.299 3.98-14.793 7.164-22.124 9.632-.797.195-1.869-.049-2.503-.57l-1.105-1.756zm103.417 69.419c1.628-7.151 2.979-14.741 4.054-22.77.407-1.788 1.805-2.974 3.593-2.567 1.788.407 2.974 1.805 2.567 3.593a251.722 251.722 0 0 1-4.135 23.128c-.407 1.787-2.082 2.535-3.869 2.128-.358-.082-.716-.163-.992-.602-.991-.602-1.462-1.837-1.218-2.91zm-61.622-91.121c-1.186-1.398-.779-3.185.262-4.453 5.674-5.102 11.429-10.561 16.112-16.265 1.041-1.267 2.991-1.576 4.259-.535 1.267 1.041 1.575 2.991.535 4.259a129.298 129.298 0 0 1-17.072 17.175c-.959.909-2.828.86-3.82.258l-.276-.439zm68.024 44.817c.197-7.477.476-15.311.397-23.227.05-1.869 1.448-3.055 2.959-3.087 1.87.049 3.056 1.447 3.088 2.959-.003 8.273.076 16.189-.56 23.941-.05 1.87-1.448 3.056-3.317 3.006-.715-.162-1.073-.244-1.706-.764-.195-.797-.748-1.674-.861-2.828zm-210.86-152.541c.601-.991 1.122-1.625 1.723-2.616 3.968-5.867 8.927-11.131 14.162-15.957 1.398-1.186 3.268-1.137 4.454.261 1.186 1.399 1.136 3.268-.262 4.454-4.796 4.549-9.316 9.538-13.121 14.689-.602.991-1.122 1.625-1.724 2.616-1.04 1.268-3.072 1.934-4.34.893-1.625-1.122-1.933-3.073-.892-4.34zM484.07 451.123c-.599-7.282-1.117-14.921-1.992-22.642l-.195-.796c-.389-1.593 1.09-3.137 2.683-3.526 1.593-.39 3.137 1.09 3.526 2.683l.195.796c.876 7.721 1.751 15.442 2.35 22.723.032 1.512-1.09 3.137-2.959 3.088-.797.194-1.43-.326-2.145-.489-.797.195-1.349-.683-1.463-1.837zm-37.989-37.98c3.773-6.663 6.912-13.846 9.612-20.753.765-1.706 2.439-2.453 3.788-1.77 1.706.764 2.454 2.438 1.77 3.787-2.505 7.704-6.002 14.805-9.856 21.826-.683 1.349-2.715 2.014-4.421 1.25l-.358-.081c-.91-.96-1.218-2.91-.535-4.259zm-137.964-96.085c-.828-1.317-.34-3.462 1.334-4.21 7.299-3.98 15.151-7.082 22.677-8.753 1.593-.39 3.218.732 3.607 2.325.39 1.593-.732 3.218-2.325 3.608-7.168 1.753-14.581 4.579-21.084 8.364-1.235.471-2.389.584-3.299-.375-.634-.52-.991-.602-.91-.959zm167.434 88.877c-2.631-6.616-6.253-13.833-10.315-20.775-.828-1.317-.34-3.462.977-4.291 1.317-.828 3.462-.34 4.291.977 4.337 7.381 7.959 14.598 10.867 21.653.747 1.675-.018 3.381-1.692 4.128-.878.553-2.308.227-2.942-.293-.634-.521-.91-.96-1.186-1.399zM353.046 304.719c.049-1.869 1.447-3.056 3.317-3.006 7.834.279 15.781 1.711 23.842 4.298 1.788.407 2.535 2.081 2.128 3.869-.406 1.788-2.081 2.535-3.869 2.128-7.345-2.424-14.936-3.775-22.412-3.973-.715-.162-1.073-.244-1.707-.764-.991-.602-1.543-1.48-1.299-2.552zm98.803 61.599c-4.663-5.95-10.041-12.063-15.582-17.461-1.267-1.041-1.136-3.268-.096-4.535 1.041-1.267 3.268-1.137 4.535-.096 5.541 5.398 10.919 11.511 15.858 17.9 1.186 1.398.779 3.186-.619 4.372-.959.91-2.471.942-3.738-.099l-.358-.081zm9.329 3.627c.994-7.671 1.272-15.505.673-22.787-.032-1.512 1.09-3.137 2.959-3.087 1.512-.032 3.137 1.09 3.445 3.04.436 7.997.434 16.27-.999 24.218-.407 1.788-1.805 2.974-3.593 2.567-.357-.081-1.072-.244-1.349-.683-.552-.878-1.38-2.195-1.136-3.268zm-62.772-53.022c.683-1.349 2.715-2.015 4.064-1.332 6.663 3.773 13.602 7.985 20.297 13.27 1.267 1.04 1.575 2.991.535 4.258-1.041 1.268-2.991 1.576-4.259.535-6.419-4.845-13-8.976-19.305-12.667l-.358-.082c-1.267-1.04-1.657-2.633-.974-3.982zm59.584 7.544c-2.111-7.25-5.018-14.305-8.283-21.441-.747-1.675.017-3.381 1.334-4.21 1.674-.747 3.381.018 4.209 1.334 3.541 7.576 6.725 15.07 8.835 22.319.39 1.593-.374 3.3-1.967 3.689-.797.195-1.869-.049-2.503-.569-1.154.113-1.43-.326-1.625-1.122zm-19.914-41.388c-4.225-6.227-8.806-12.534-14.184-18.648-1.186-1.398-.779-3.185.261-4.453 1.398-1.186 3.186-.779 4.454.261 5.378 6.114 10.236 12.86 14.46 19.087.828 1.317.697 3.543-.977 4.29-.959.91-2.389.585-3.381-.017-.357-.081-.715-.163-.633-.52zm-30.286-35.475c-5.541-5.398-11.521-10.52-17.582-15.284-1.268-1.041-1.576-2.991-.535-4.259 1.04-1.267 2.991-1.575 4.258-.535 6.338 5.204 12.318 10.325 17.858 15.723 1.268 1.041 1.137 3.268.097 4.535-1.041 1.267-2.91 1.218-3.82.259.081-.358.081-.358-.276-.439zm-57.719-45.479c.683-1.349 2.715-2.015 4.063-1.332 7.021 3.854 13.602 7.985 20.541 12.197 1.268 1.04 1.934 3.072.893 4.34-1.041 1.267-3.073 1.933-4.34.892-6.5-4.488-13.163-8.261-20.183-12.115l-.358-.081c-.91-.959-1.299-2.552-.616-3.901zm117.072 377.901s-.081.357 0 0c1.625 1.122 3.218.732 4.34-.893 1.204-1.983 3.09-5.314 5.465-10.791.764-1.706.017-3.38-1.689-4.145-1.707-.764-3.381-.017-4.145 1.689-1.611 3.771-3.579 7.46-4.863 9.8-1.122 1.625-.814 3.575.892 4.34zM90.096 86.92c-.552-.878-.747-1.674-.584-2.39.13-2.226.976-4.29 2.456-5.834 2.081-2.535 5.349-3.671 9.526-3.849 38.229-1.077 76.33-8.2 113.634-15.13 29.778-5.257 60.434-11.066 91.155-13.852 1.511-.032 5.77-.567 7.622 2.863 2.209 3.511-.36 8.192-3.564 12.352a237.818 237.818 0 0 1-11.886 14.218c-6.162 7.247-12.763 14.77-15.772 19.727-2.049 4.046-3.74 8.174-3.74 8.174-.765 1.707-1.172 3.494-1.855 4.843-.407 1.788-2.52 2.811-4.226 2.047-1.788-.407-3.852-1.253-5.721-1.302l-2.146-.488c-4.014-.538-88.676-11.91-124.806-16.748-6.242-.668-10.695-.93-15.067-1.548-11.052-1.011-22.104-2.023-32.88-2.595l-1.788-.407c-.081.358 0 0-.358-.081zm182.655 13.742c.081-.358 1.773-4.486 4.261-8.808 3.171-5.672 9.854-13.553 16.455-21.076 4-4.355 7.642-8.791 10.406-12.675 2.602-3.169 3.366-4.875 3.968-5.866-.358-.082-.715-.163-1.154.113-30.281 2.51-60.938 8.32-90.358 13.658-37.305 6.929-76.121 13.89-114.788 15.243-1.154.113-1.95.308-2.747.503 9.264.604 18.089 1.485 27.354 2.089 4.453.261 8.825.88 15.067 1.549 36.13 4.838 120.873 15.852 125.164 16.828l2.503.57 3.218.732.651-2.86z" fill="#4BA22D"/><path d="M89.837 83.1c.602-.991 1.919-1.82 2.992-1.576 11.133.654 22.185 1.665 33.237 2.676 4.454.262 8.826.88 15.067 1.549.358.081 49.654 4.908 125.164 16.829 1.073.244 4.73.7 8.939 2.034 1.788.407 2.535 2.081 2.128 3.869 0 0-.325 1.43-.293 2.942.532 12.532 15.379 41.484 15.298 41.841 5.198 10.209 8.186 16.907 9.518 20.971 1.137 3.267 1.835 6.811-.686 9.622-3.316 3.006-8.241 1.509-12.807.093-17.829-5.938-32.309-13.37-37.98-16.541l-.358-.082-.715-.163c-.715-.162-1.706-.764-3.055-1.447-.715-.163-1.349-.683-2.064-.846l.244-1.073a7936.39 7936.39 0 0 0 2.293-5.119c2.341 1.285 3.771 1.61 4.762 2.212l1.073.244.715.163c5.395 2.732 19.794 10.522 37.346 16.021 2.942.294 4.648 1.058 5.802.945-.195-.797-.308-1.951-1.526-4.86-1.689-4.146-4.207-9.608-8.382-17.703-.471-1.236-15.594-30.627-16.158-44.67.081-.358-.195-.797-.114-1.154l-5.005-1.14C189.761 96.817 141.18 92.153 140.465 91.99c-6.241-.668-10.695-.93-15.067-1.549-3.299-.374-6.68-.392-9.622-.685-7.785-2.148-13.424-3.808-15.131-4.572-.357-.081-2.421-.927-5.087-.782-1.511.032-2.665.146-3.104.422-1.204 1.982 6.401 8.226 12.186 12.551-2.34-1.284-4.404-2.13-6.468-2.976-1.349-.683-2.698-1.366-3.965-2.407-3.608-2.325-6.061-4.764-4.89-8.258 0 0 .082-.358.52-.634z" fill="#4BA22D"/><path d="M218.704 215.851c-6.45-6.357-15.468-16.307-26.387-27.818-26.664-28.257-62.897-67.342-84.77-83.603-.357-.081-.633-.52-.991-.601-2.616-1.724-7.052-5.366-10.855-8.488-2.177-2-3.72-3.48-4.907-4.878-.91-.959-3.2-4.113-1.834-6.81 1.203-1.983 3.511-2.21 5.738-2.08 3.023-.063 5.168.425 6.16 1.027 9.767 3.351 147.066 42.873 149.487 43.801.358.081 2.779 1.008 5.835 2.456 0 0 3.055 1.447 4.599 2.927 2.729 2.878 1.038 7.006.273 8.712-1.285 2.34-3.09 5.314-5.058 9.003-2.927 4.599-6.374 9.831-8.749 15.308-3.822 8.532-7.272 22.038-10.152 33.041-2.311 8.5-3.776 14.936-5.305 18.348-.845 2.064-2.325 3.608-4.357 4.274-2.389.584-4.535.096-6.16-1.026-.665-2.032-1.933-3.073-2.567-3.593zm7.494-3.183c1.366-2.698 2.994-9.849 5.061-17.276 2.961-11.361 6.492-25.224 10.396-34.114 2.456-5.834 5.985-11.424 8.993-16.381 2.244-3.25 4.814-7.93 5.578-9.636-.633-.521-1.348-.683-1.982-1.204a19.366 19.366 0 0 0-4.843-1.854c-1.073-.244-139.005-40.287-149.845-43.882l-1.073-.245c.91.96 1.82 1.919 3.445 3.041 3.526 2.683 6.971 5.723 9.23 7.366.357.081.633.52.991.601 22.148 16.7 58.74 55.866 85.322 84.481 10.561 11.429 19.66 21.022 26.111 27.379 1.186 1.398 2.177 2 2.535 2.081l.081-.357zm62.556-36.91c-8.335-11.298-16.946-23.036-25.28-34.335l25.28 34.335z" fill="#4BA22D"/><path d="M286.949 178.732c.991.602 2.503.57 3.819-.258 1.399-1.187 1.887-3.332.701-4.73l-25.28-34.336c-1.186-1.398-3.332-1.886-4.73-.7-1.398 1.186-1.886 3.331-.7 4.73l25.28 34.335c.276.439.634.521.91.959zm-5.754-2.813c-8.058-10.86-15.759-21.639-23.817-32.499l23.817 32.499z" fill="#4BA22D"/><path d="M279.391 178.893c.991.601 2.503.569 3.819-.259 1.399-1.186 1.887-3.332.701-4.73l-23.818-32.498c-1.186-1.399-3.332-1.887-4.73-.701-1.398 1.186-1.886 3.332-.7 4.73l23.818 32.498c.276.439.634.521.91.96zm-13.472-10.212c-3.948-5.787-7.895-11.575-12.201-17.443l12.201 17.443z" fill="#4BA22D"/><path d="M264.196 171.297c.991.602 2.503.57 3.738.099 1.398-1.186 1.805-2.974.7-4.73l-12.201-17.444c-1.186-1.398-3.331-1.886-4.729-.7-1.399 1.186-1.806 2.974-.701 4.73l12.201 17.444c.358.081.634.52.992.601zm-11.457-7.496c-1.738-2.276-3.395-4.909-5.134-7.185l5.134 7.185z" fill="#4BA22D"/><path d="M250.934 166.775c.991.602 2.503.57 3.82-.259 1.398-1.186 1.886-3.331.7-4.729l-5.134-7.186c-1.186-1.398-3.331-1.886-4.729-.7-1.398 1.186-1.887 3.331-.701 4.729l5.134 7.186c.276.439.553.878.91.959z" fill="#4BA22D"/><path d="M244.71 162.726l2.294-5.119 5.119 2.293c14.642 6.717 25.872 11.906 33.852 14.85 1.349.683 2.779 1.009 3.77 1.61-6.483-7.868-14.07-17.493-20.114-25.638-4.387-5.511-8.692-11.38-9.602-12.339l-1.268-1.041c.765-1.706.733-3.218.18-4.096-.633-.52-2.258-1.642-3.607-2.325a25.375 25.375 0 0 0-5.558-2.017c-2.861-.651-139.721-40.45-149.488-43.801-.358-.082-2.421-.927-5.087-.782-1.512.032-2.666.145-3.105.422-.601.99 1.137 3.267 3.948 5.787-1.706-.764-3.331-1.886-5.395-2.732l2.537-6.192c38.128 10.934 163.075 46.893 165.854 47.902a79.245 79.245 0 0 1 3.055 1.447l.358.082.357.081s1.902 1.561 1.82 1.919c1.544 1.479 4.745 5.592 10.512 13.298 6.678 8.666 14.736 19.526 21.577 27.476 1.462 1.837 2.729 2.877 3.282 3.755.633.521.91.96 1.186 1.399 1.462 1.837.698 3.543.177 4.177-1.366 2.697-4.941 1.884-6.014 1.64-1.788-.407-4.291-.977-7.346-2.425-6.907-2.7-17.584-7.01-31.869-13.646-3.771-1.61-7.817-3.66-11.945-5.351.358.081.439-.277.52-.634z" fill="#4BA22D"/></svg>