<svg width="144" height="144" fill="none" xmlns="http://www.w3.org/2000/svg"><path d="M141.6 122.4h-2.4V48c0-6.616-5.383-12-12-12h-16.8v-7.199c0-.77-.384-1.471-.994-1.918l.012-.019-36-26.4a2.402 2.402 0 0 0-2.838 0l-36 26.4.012.02A2.386 2.386 0 0 0 33.6 28.8V36H16.8c-6.617 0-12 5.383-12 12v74.4H2.4a2.4 2.4 0 0 0-2.4 2.4v7.2c0 6.617 5.383 12 12 12h120c6.617 0 12-5.383 12-12v-7.2a2.4 2.4 0 0 0-2.4-2.4zM110.4 60c2.647 0 4.8 2.154 4.8 4.8 0 2.648-2.153 4.8-4.8 4.8V60zM72 5.378l31.815 23.33L96 33.915v-5.114a2.4 2.4 0 0 0-2.4-2.4H50.4a2.4 2.4 0 0 0-2.4 2.4v5.114l-7.814-5.208L72 5.377zm19.2 25.824v5.916L72 49.916l-19.2-12.8v-5.915h38.4zm-52.8 2.083l32.268 21.514a2.39 2.39 0 0 0 2.662 0l32.27-21.514v36.317H38.4V33.284zM36 74.401h74.4c5.294 0 9.6-4.306 9.6-9.6 0-5.295-4.306-9.6-9.6-9.6v-4.8h14.4V112.8H19.2V50.4h14.4v4.8c-5.294 0-9.6 4.306-9.6 9.6 0 5.295 4.306 9.6 9.6 9.6H36zM33.6 60v9.6a4.805 4.805 0 0 1-4.8-4.8c0-2.648 2.153-4.8 4.8-4.8zm-24-12c0-3.97 3.231-7.2 7.2-7.2h16.8v4.8H16.8a2.4 2.4 0 0 0-2.4 2.4v67.2a2.4 2.4 0 0 0 2.4 2.4h110.4a2.4 2.4 0 0 0 2.4-2.4V48a2.4 2.4 0 0 0-2.4-2.4h-16.8v-4.8h16.8c3.969 0 7.2 3.231 7.2 7.2v74.4h-48a2.4 2.4 0 0 0-2.4 2.4c0 1.325-1.077 2.4-2.4 2.4H62.4a2.402 2.402 0 0 1-2.4-2.4 2.4 2.4 0 0 0-2.4-2.4h-48V48zm129.6 84c0 3.97-3.231 7.2-7.2 7.2H12c-3.969 0-7.2-3.23-7.2-7.2v-4.8h50.81c.992 2.794 3.66 4.8 6.79 4.8h19.2c3.13 0 5.799-2.006 6.79-4.8h50.81v4.8z" fill="#fff"/><path d="M74.4 79.2h-4.8V84h4.8v-4.8zm0 9.6h-4.8v4.8h4.8v-4.8zm-9.6 0H60v4.8h4.8v-4.8zm19.2 0h-4.8v4.8H84v-4.8zm-9.6 9.6h-4.8v4.8h4.8v-4.8zm-9.6 0H60v4.8h4.8v-4.8zm-9.6 0h-4.8v4.8h4.8v-4.8zm28.8 0h-4.8v4.8H84v-4.8zm9.6 0h-4.8v4.8h4.8v-4.8z" fill="#fff"/></svg>