<svg width="150" height="150" fill="none" xmlns="http://www.w3.org/2000/svg"><path d="M127.5 12.5C127.5 5.5 122 0 115 0H22.5C15.5 0 10 5.5 10 12.5v20h20v105c0 7 5.5 12.5 12.5 12.5h85c7 0 12.5-5.5 12.5-12.5V125h-12.5V12.5zM30 27.5H15v-15C15 8.25 18.25 5 22.5 5S30 8.25 30 12.5v15zm5 110v-125c0-2.75-1-5.25-2.5-7.5H115c4.25 0 7.5 3.25 7.5 7.5V125H50v12.5c0 4.25-3.25 7.5-7.5 7.5s-7.5-3.25-7.5-7.5zm100-7.5v7.5c0 4.25-3.25 7.5-7.5 7.5h-75c1.75-2.25 2.5-4.75 2.5-7.5V130h80z" fill="#fff"/><path d="M97.5 80h20v5h-20v-5zM40 80h52.5v5H40v-5zm27.5 10h50v5h-50v-5zM40 90h22.5v5H40v-5zm45 20h32.5v5H85v-5zm-45 0h40v5H40v-5zm34.5-59l3 2 3-2c9-6 14.5-16.25 14.5-27v-8.25L77.5 10 60 15.75V24c0 10.75 5.5 21 14.5 27zM65 19.25L77.5 15 90 19.25V24c0 9.25-4.5 17.75-12.25 23h-.25l-.25-.25C69.5 41.75 65 33 65 23.75v-4.5z" fill="#fff"/><path d="M85 25.25l-5-.5C79.5 29 77.25 33 73.75 35.5l2.75 4.25c4.75-3.5 8-8.75 8.5-14.5zM55 100h62.5v5H55v-5zm-15 0h10v5H40v-5zm27.5-30h50v5h-50v-5zM40 70h22.5v5H40v-5zm20-12.5h35v5H60v-5z" fill="#fff"/></svg>