<svg width="192" height="80" fill="none" xmlns="http://www.w3.org/2000/svg"><path d="M5.395 29.788v7.709c.651-.743 1.302-1.393 1.953-1.858.652-.464 1.303-.743 2.14-1.022.744-.185 1.581-.371 2.511-.371 1.303 0 2.512.279 3.535.836a6.047 6.047 0 0 1 2.418 2.415c.372.65.651 1.3.744 2.136.094.743.187 1.672.187 2.694v10.031c0 1.022-.28 1.858-.745 2.415-.465.557-1.116.836-1.953.836-1.767 0-2.604-1.022-2.604-3.158v-8.824c0-1.672-.28-2.972-.745-3.808-.465-.929-1.488-1.3-2.883-1.3-.93 0-1.767.278-2.512.836-.744.557-1.302 1.207-1.674 2.136-.279.743-.465 2.136-.465 4.18v6.873c0 1.022-.279 1.858-.744 2.322-.465.557-1.116.836-1.954.836C.837 55.702 0 54.68 0 52.544V29.788c0-1.022.186-1.858.651-2.415.465-.558 1.116-.836 1.953-.836.838 0 1.489.278 1.954.836.651.557.837 1.3.837 2.415zm33.3 16.44H28.463c0 1.207.28 2.229.744 3.158a4.993 4.993 0 0 0 1.86 2.043c.745.465 1.675.65 2.605.65.652 0 1.21-.093 1.768-.185.558-.186 1.023-.372 1.488-.65.465-.28.93-.65 1.302-1.022s.93-.836 1.582-1.486c.279-.186.65-.372 1.116-.372.558 0 .93.186 1.302.465.372.278.465.742.465 1.207 0 .464-.186 1.022-.558 1.672-.372.65-.93 1.207-1.674 1.858-.745.557-1.675 1.021-2.79 1.486-1.117.371-2.42.557-3.908.557-3.348 0-5.953-.929-7.906-2.88-1.86-1.95-2.79-4.458-2.79-7.802 0-1.579.185-2.972.65-4.272.466-1.3 1.117-2.415 2.047-3.437.93-.929 1.953-1.672 3.256-2.136a12.522 12.522 0 0 1 4.278-.743c2.047 0 3.814.464 5.302 1.3 1.489.836 2.605 1.95 3.256 3.344.744 1.393 1.116 2.786 1.116 4.18 0 1.3-.372 2.136-1.116 2.507-.651.372-1.767.558-3.163.558zm-10.232-2.973h9.488c-.093-1.764-.65-3.158-1.488-3.994-.837-.928-1.953-1.3-3.349-1.3-1.302 0-2.418.465-3.255 1.393-.745.836-1.21 2.137-1.396 3.901z" fill="#fff"/><path d="M47.718 34.803h.558v-3.158c0-.836 0-1.486.093-1.95 0-.465.186-.93.373-1.208.186-.371.465-.65.837-.836.372-.186.837-.371 1.302-.371a2.54 2.54 0 0 1 1.767.743c.372.371.558.743.651 1.207.093.465.186 1.115.186 2.043v3.53h2.047c.744 0 1.302.186 1.674.557.372.372.558.836.558 1.394 0 .743-.279 1.207-.837 1.486-.558.278-1.395.464-2.419.464h-1.023v9.567c0 .836 0 1.486.093 1.858.093.464.186.836.465 1.114.28.28.652.372 1.21.372.279 0 .744-.093 1.209-.186.558-.093.93-.186 1.21-.186.464 0 .836.186 1.115.465.372.371.465.743.465 1.207 0 .836-.465 1.486-1.395 1.95-.93.465-2.232.651-4 .651-1.674 0-2.883-.279-3.72-.836-.837-.557-1.395-1.3-1.675-2.23-.279-.928-.372-2.228-.372-3.9V38.518h-.65c-.745 0-1.303-.185-1.768-.557a2.4 2.4 0 0 1-.372-1.3c0-.558.186-1.022.65-1.394.373-.278 1.024-.464 1.768-.464zm16.372-2.879c-.745 0-1.396-.186-1.861-.65-.558-.465-.744-1.115-.744-1.858 0-.743.279-1.393.837-1.858.558-.464 1.116-.743 1.86-.743.651 0 1.303.186 1.768.65.558.465.744 1.022.744 1.858 0 .836-.28 1.393-.744 1.858-.558.464-1.21.743-1.86.743zm2.604 5.387v15.047c0 1.022-.28 1.858-.744 2.415-.465.557-1.117.836-1.86.836-.745 0-1.396-.279-1.861-.836-.465-.557-.744-1.3-.744-2.322V37.404c0-1.022.279-1.765.744-2.322.465-.557 1.116-.743 1.86-.743.745 0 1.396.278 1.86.743.466.557.745 1.3.745 2.229z" fill="#52AE32"/><path d="M90.878 49.107c0 .65-.186 1.3-.558 2.044-.372.743-1.023 1.486-1.767 2.136-.837.65-1.767 1.207-3.07 1.579-1.209.371-2.604.65-4.092.65-3.256 0-5.767-.929-7.628-2.786-1.86-1.858-2.697-4.366-2.697-7.524 0-2.136.372-3.994 1.209-5.666.837-1.672 2.046-2.88 3.628-3.808 1.58-.929 3.441-1.393 5.674-1.393 1.395 0 2.604.185 3.72.557a10.48 10.48 0 0 1 2.884 1.486c.744.65 1.395 1.3 1.767 1.95.372.744.651 1.394.651 1.951 0 .65-.279 1.115-.744 1.58-.465.464-1.023.65-1.674.65-.465 0-.837-.093-1.116-.372-.28-.186-.651-.557-.93-1.115-.652-.929-1.303-1.672-2.047-2.136-.744-.465-1.581-.743-2.697-.743-1.582 0-2.79.557-3.721 1.765-.93 1.207-1.395 2.879-1.395 4.922 0 1.022.093 1.858.372 2.694.279.836.558 1.486 1.023 2.136.465.558 1.023 1.022 1.674 1.3.651.28 1.396.465 2.14.465 1.023 0 1.953-.279 2.697-.743.744-.464 1.395-1.207 1.954-2.23a5.413 5.413 0 0 1 1.023-1.392c.372-.372.837-.465 1.395-.465.651 0 1.21.279 1.581.743.558.65.744 1.208.744 1.765zm24.278-4.18c0 1.58-.279 2.973-.744 4.273a8.972 8.972 0 0 1-2.14 3.344 8.997 8.997 0 0 1-3.348 2.136 12.67 12.67 0 0 1-4.372.743 12.51 12.51 0 0 1-4.279-.743c-1.302-.464-2.325-1.207-3.255-2.229a8.984 8.984 0 0 1-2.14-3.344 12.472 12.472 0 0 1-.744-4.273c0-1.579.28-3.065.744-4.365a8.984 8.984 0 0 1 2.14-3.344 9 9 0 0 1 3.348-2.136 12.524 12.524 0 0 1 4.279-.743c1.581 0 3.07.279 4.372.743a8.997 8.997 0 0 1 3.348 2.136c.931.93 1.582 2.044 2.14 3.344.372 1.486.651 2.88.651 4.458zm-5.302 0c0-2.136-.465-3.808-1.395-4.922-.93-1.208-2.233-1.765-3.814-1.765-1.023 0-1.953.279-2.697.836-.745.557-1.396 1.3-1.768 2.322-.465 1.022-.65 2.23-.65 3.622 0 1.393.185 2.508.65 3.53.372 1.022 1.023 1.765 1.768 2.322.744.557 1.674.836 2.697.836 1.581 0 2.884-.557 3.814-1.765.93-1.3 1.395-2.88 1.395-5.016z" fill="#fff"/><path d="M175.079 49.814c.24-.095.395-.227.467-.394a2.273 2.273 0 0 0 .36-1.53c-.048-.813-.537-1.52-1.35-2.166-7.517-5.804-14.125-12.803-20.601-19.647-5.21-5.408-10.516-11.055-16.276-16.105-.298-.228-1.075-.957-1.948-.54-.957.382-1.125 1.698-1.09 3.001.035 1.303.129 2.93.307 4.592.178 2.356.404 4.83.283 6.266-.18 1.112-.444 2.188-.444 2.188-.096.454-.275.872-.335 1.243-.18.418.095.933.549 1.029.419.18.957.311 1.339.574l.502.216c.885.479 19.543 10.571 27.504 14.88 1.351.779 2.283 1.377 3.251 1.892 2.367 1.413 4.733 2.825 6.98 4.286l.419.18c-.036.083 0 0 .083.035zm-38.678-23.94c.036-.083.3-1.16.432-2.391.193-1.602.003-4.161-.222-6.636-.167-1.46-.25-2.882-.237-4.066-.059-1.017.037-1.47.061-1.758.084.036.167.072.215.192 5.712 4.93 11.018 10.577 16.144 15.95 6.476 6.843 13.251 13.914 20.816 19.838.216.192.347.347.478.503-1.948-1.233-3.848-2.346-5.796-3.58-.933-.598-1.901-1.113-3.252-1.89-7.96-4.31-26.583-14.486-27.587-14.918l-.586-.251-.753-.323.287-.67z" fill="#EAEAEA"/><path d="M175.689 49.085c.025-.287-.119-.646-.37-.753-2.33-1.497-4.697-2.91-7.064-4.322-.932-.598-1.9-1.113-3.251-1.891-.083-.036-10.685-6.273-27.587-14.917-.251-.108-1.052-.55-2.092-.898-.419-.18-.813.047-.993.466 0 0-.144.334-.371.633-1.939 2.438-9.151 6.08-9.187 6.164-2.536 1.29-4.115 2.197-4.976 2.819-.706.49-1.364 1.099-1.269 2.031.226 1.089 1.434 1.508 2.557 1.892 4.448 1.413 8.441 2.038 10.043 2.23l.084.036.167.072c.167.072.454.096.825.156.167.072.371.06.538.132l.108-.251.288-1.363c-.658-.084-.993-.228-1.28-.252l-.251-.108-.167-.072c-1.483-.24-5.512-.78-9.839-2.242-.634-.371-1.088-.467-1.303-.659.155-.131.347-.346 1.017-.752.945-.586 2.248-1.314 4.27-2.33.275-.178 7.607-3.868 9.773-6.605.036-.084.156-.132.192-.215.585.251 1.004.43 1.171.503 16.902 8.644 27.337 14.809 27.504 14.88 1.351.779 2.283 1.377 3.251 1.892.717.407 1.399.898 2.032 1.269 1.877.706 3.252 1.198 3.706 1.294.084.036.622.168 1.136.586.298.228.514.42.561.539-.048.574-2.487.715-4.281.738.658.084 1.196.216 1.734.348.37.06.741.12 1.147.097 1.065.06 1.914-.07 2.189-.944 0 0 .036-.083-.012-.203z" fill="#EAEAEA"/><path d="M130.414 56.9c2.224-.334 5.489-1.014 9.364-1.728 9.483-1.776 22.47-4.326 29.238-4.393.084.035.204-.012.287.024.777.036 2.2-.047 3.42-.118.73-.083 1.256-.154 1.698-.262.323-.06 1.244-.358 1.364-1.099.048-.574-.382-.957-.848-1.256-.598-.455-1.1-.67-1.387-.694-2.45-.755-35.791-12.89-36.413-13.058-.084-.036-.705-.203-1.53-.36 0 0-.825-.155-1.351-.084-.969.179-1.233 1.255-1.329 1.71-.084.657-.156 1.517-.3 2.546-.085 1.35-.158 2.905-.482 4.352-.479 2.272-1.761 5.487-2.791 8.117-.778 2.044-1.425 3.55-1.617 4.46-.132.537-.061 1.063.25 1.494.394.466.896.682 1.387.694.43-.31.837-.334 1.04-.346zm-1.039-1.735c.12-.742.839-2.415 1.509-4.208 1.066-2.714 2.384-6.013 2.9-8.368.359-1.53.468-3.169.588-4.604.025-.98.193-2.295.289-2.75.204-.011.371.06.574.049.658.084 1.16.3 1.244.335.251.108 33.795 12.23 36.496 13.094l.252.107c-.323.06-.646.12-1.137.107-1.1.023-2.236.13-2.929.13-.084-.036-.203.012-.287-.024-6.888.115-19.958 2.63-29.478 4.488-3.791.751-7.02 1.347-9.244 1.68-.442.108-.729.083-.813.047l.036-.083zm-7.164-16.554c3.325-1.05 6.77-2.148 10.094-3.198l-10.094 3.198z" fill="#EAEAEA"/><path d="M122.139 39.472c-.286-.024-.585-.252-.729-.61-.107-.443.109-.945.551-1.052l10.094-3.198c.443-.107.945.108 1.052.55.107.443-.108.945-.551 1.053l-10.094 3.197c-.119.048-.203.012-.323.06zm1.567.276c3.205-1.002 6.326-2.04 9.531-3.043l-9.531 3.043z" fill="#EAEAEA"/><path d="M123.633 40.609c-.287-.024-.586-.251-.729-.61-.107-.443.108-.945.551-1.052l9.532-3.043c.442-.107.944.108 1.052.55.107.443-.109.945-.551 1.053l-9.532 3.043c-.12.047-.203.011-.323.059zm4.197-.081c1.639-.585 3.277-1.17 4.999-1.718l-4.999 1.718z" fill="#EAEAEA"/><path d="M127.794 41.305c-.287-.024-.586-.251-.765-.526-.107-.443.072-.861.551-1.052l4.999-1.719c.443-.107.945.108 1.052.551.107.443-.072.86-.551 1.052l-4.999 1.718c-.084-.035-.203.012-.287-.024zm3.396.17c.682-.203 1.399-.49 2.081-.692l-2.081.692z" fill="#EAEAEA"/><path d="M131.117 42.336c-.287-.024-.586-.252-.729-.61-.107-.443.108-.945.551-1.053l2.081-.692c.442-.107.944.109 1.052.551.107.443-.108.945-.551 1.052l-2.081.692c-.12.048-.239.096-.323.06z" fill="#EAEAEA"/><path d="M132.958 42.433l.288-1.363-1.363-.288c-3.921-.792-6.934-1.392-8.966-1.967-.371-.06-.706-.204-.993-.228a170.241 170.241 0 0 0 7.786-2.207c1.686-.465 3.408-1.014 3.731-1.074l.407-.023c.096-.455.323-.753.562-.849.204-.012.694 0 1.065.06a6.28 6.28 0 0 1 1.41.408c.67.288 33.963 12.303 36.414 13.057.083.036.621.168 1.135.587.299.227.514.419.562.538-.024.287-.706.49-1.639.585.455.096.945.109 1.483.24l.395-1.614c-9.252-3.378-39.593-14.422-40.298-14.626a19.513 19.513 0 0 0-.825-.156l-.084-.036-.083-.036s-.61.036-.646.12c-.526.07-1.77.429-4.054 1.133-2.607.763-5.813 1.766-8.348 2.362-.562.155-.969.178-1.208.274-.203.012-.323.06-.442.107-.562.155-.658.61-.647.813-.12.741.717 1.1.968 1.208.419.18 1.004.431 1.829.587 1.782.468 4.555 1.163 8.393 1.92.992.227 2.104.407 3.18.67-.083-.035-.048-.119-.012-.202z" fill="#EAEAEA"/></svg>