<svg width="132" height="132" fill="none" xmlns="http://www.w3.org/2000/svg"><g clip-path="url(#clip0)" fill="#fff"><path d="M21.933 117.287a2.595 2.595 0 0 0-1.823-.756c-.678 0-1.343.276-1.823.756a2.599 2.599 0 0 0-.755 1.823c0 .678.276 1.343.755 1.822.48.48 1.145.756 1.823.756.678 0 1.343-.276 1.823-.756.48-.479.755-1.144.755-1.822a2.6 2.6 0 0 0-.755-1.823zm99.116-70.123a2.59 2.59 0 0 0-1.822-.756c-.678 0-1.344.276-1.823.756a2.6 2.6 0 0 0-.756 1.822c0 .678.276 1.344.756 1.823.479.48 1.145.756 1.823.756a2.59 2.59 0 0 0 1.822-.756c.482-.48.758-1.145.758-1.823a2.59 2.59 0 0 0-.758-1.822z"/><path d="M131.244.755A2.581 2.581 0 0 0 129.42 0L66 .003a2.578 2.578 0 0 0-2.578 2.578v7.373l-24.438 6.548a2.578 2.578 0 0 0-1.823 3.158l12.666 47.268L38.87 77.884a7.731 7.731 0 0 0-6.384-3.375H7.736c-4.264 0-7.734 3.47-7.734 7.734v42.023c0 4.264 3.47 7.734 7.734 7.734h24.75c3.623 0 6.67-2.505 7.506-5.873l3.065 2.673a12.987 12.987 0 0 0 8.539 3.2h77.825a2.578 2.578 0 0 0 2.578-2.578V2.578a2.584 2.584 0 0 0-.755-1.823zm-96.18 123.511a2.581 2.581 0 0 1-2.579 2.578H7.736a2.581 2.581 0 0 1-2.578-2.578V82.243a2.581 2.581 0 0 1 2.578-2.578h9.797v29.699a2.578 2.578 0 0 0 5.156 0V79.665h9.797a2.581 2.581 0 0 1 2.578 2.578v42.023zm7.745-103.45l20.613-5.524v9.553l-1.728.463a2.578 2.578 0 0 0-1.823 3.158 6.95 6.95 0 0 1-4.908 8.502 2.578 2.578 0 0 0-1.822 3.162l10.05 37.212h-5.175L55.349 66.91a2.573 2.573 0 0 0-.432-.904L42.81 20.816zm20.613 15.852v21.755L58.72 41.01a12.078 12.078 0 0 0 4.702-4.343zm37.038 90.176H51.595a7.837 7.837 0 0 1-5.15-1.93l-6.225-5.43V83.827l11.255-11.256 2.042 7.987a2.578 2.578 0 0 0 2.497 1.94l50.687.003c1.991 0 3.61 1.62 3.61 3.61a3.613 3.613 0 0 1-3.61 3.609H80.729a2.578 2.578 0 0 0 0 5.156h34.042c1.99 0 3.609 1.62 3.609 3.61a3.613 3.613 0 0 1-3.609 3.609H80.729a2.578 2.578 0 1 0 0 5.156h28.525a3.613 3.613 0 0 1 3.61 3.609 3.614 3.614 0 0 1-3.61 3.61H80.729a2.578 2.578 0 1 0 0 5.156h19.731a3.613 3.613 0 0 1 3.61 3.609c0 1.99-1.62 3.609-3.61 3.609zm26.383 0h-18.398c.5-1.102.781-2.323.781-3.61a8.711 8.711 0 0 0-.781-3.609h.809c4.834 0 8.766-3.932 8.766-8.765 0-1.41-.337-2.742-.931-3.923 3.712-1.02 6.447-4.422 6.447-8.452a8.719 8.719 0 0 0-1.73-5.222V60.588a2.579 2.579 0 0 0-5.157 0v29.337a8.765 8.765 0 0 0-1.879-.205h-.084a8.71 8.71 0 0 0 .78-3.61c0-4.833-3.932-8.765-8.765-8.765h-4.144c4.4-1.887 7.491-6.261 7.491-11.345 0-6.803-5.535-12.338-12.338-12.338-6.803 0-12.338 5.535-12.338 12.338 0 5.084 3.09 9.458 7.49 11.345H78.77v-49.02a12.136 12.136 0 0 0 9.243-9.244h19.393a12.138 12.138 0 0 0 9.243 9.243v8.015a2.579 2.579 0 0 0 5.156 0V26.022a2.578 2.578 0 0 0-2.578-2.578 6.95 6.95 0 0 1-6.941-6.941 2.578 2.578 0 0 0-2.578-2.579H85.712a2.578 2.578 0 0 0-2.578 2.579 6.95 6.95 0 0 1-6.942 6.941 2.578 2.578 0 0 0-2.578 2.578v51.323H68.58V5.159l58.264-.003v121.688zM97.71 73.182c-3.96 0-7.182-3.222-7.182-7.182 0-3.96 3.222-7.182 7.182-7.182 3.96 0 7.182 3.222 7.182 7.182a7.19 7.19 0 0 1-7.182 7.182z"/></g><defs><clipPath id="clip0"><path fill="#fff" d="M0 0h132v132H0z"/></clipPath></defs></svg>