<svg width="593" height="591" viewBox="0 0 593 591" fill="none" xmlns="http://www.w3.org/2000/svg">
<path d="M266.863 196.847C266.507 196.937 266.241 197.382 266.241 197.382C262.775 198.634 259.309 199.885 255.577 201.582C253.888 202.386 252.197 201.678 251.394 199.989C250.59 198.301 251.298 196.61 252.986 195.806C256.719 194.109 260.185 192.858 264.007 191.516C265.784 191.068 267.476 191.776 267.834 193.199C268.548 194.531 267.75 195.867 266.863 196.847Z" fill="#1C287D"/>
<path d="M304.099 460.12C305.342 459.051 305.605 457.094 304.18 455.94C303.11 454.697 301.153 454.434 300 455.859C294.496 461.028 288.101 465.665 281.437 469.235C279.749 470.039 279.486 471.996 280.2 473.329C280.914 474.662 282.961 475.28 284.294 474.566C288.292 472.424 291.845 470.016 295.664 467.163C298.505 464.934 301.703 462.615 304.099 460.12ZM319.716 441.058C323.971 433.934 327.426 426.635 329.544 418.538C329.897 416.936 329.094 415.248 327.492 414.895C325.89 414.542 324.202 415.346 323.849 416.948C321.907 424.244 318.718 431.099 314.729 437.777C313.931 439.112 314.469 441.246 315.804 442.043C316.784 442.931 318.207 442.572 319.184 441.948C319.184 441.948 319.45 441.503 319.716 441.058ZM264.026 479.675C263.578 477.897 261.886 477.188 260.109 477.636C257.264 478.353 254.419 479.07 251.485 479.432C247.128 480.152 242.327 480.606 237.701 480.259C236.189 480.262 234.591 481.421 234.683 483.288C234.686 484.8 235.845 486.399 237.713 486.306C242.694 486.564 247.851 486.02 252.563 485.211C255.853 484.76 258.698 484.043 261.898 483.236C262.254 483.147 262.609 483.057 262.875 482.612C263.942 482.343 264.384 481.097 264.026 479.675ZM331.811 394.52C331.351 386.694 329.645 378.426 326.873 370.427C326.425 368.649 324.378 368.031 323.045 368.745C321.268 369.193 320.649 371.24 321.363 372.572C323.956 379.86 325.483 387.417 326.208 394.798C326.301 396.665 327.726 397.819 329.594 397.726C330.305 397.547 330.66 397.457 331.371 397.278C331.548 396.477 332.08 395.587 331.811 394.52ZM217.425 480.831C217.777 479.23 216.974 477.541 215.372 477.189C208.075 475.246 200.955 472.503 194.277 468.513C192.941 467.715 190.808 468.253 190.1 469.944C189.302 471.28 189.84 473.413 191.531 474.122C198.92 477.932 206.485 480.941 213.872 483.239C214.672 483.416 215.739 483.147 216.361 482.612C216.627 482.167 217.159 481.276 217.425 480.831ZM115.64 552.621C113.847 545.51 112.321 537.953 111.06 529.951C110.612 528.173 109.187 527.02 107.409 527.468C105.631 527.916 104.478 529.341 104.926 531.119C106.097 538.765 107.713 546.678 109.595 554.145C110.043 555.923 111.734 556.631 113.512 556.183C113.867 556.093 114.223 556.004 114.489 555.559C115.466 554.934 115.908 553.688 115.64 552.621ZM175.139 460.101C176.293 458.676 175.845 456.898 174.775 455.655C168.985 450.685 163.104 445.36 158.291 439.766C157.221 438.523 155.264 438.26 154.021 439.33C152.778 440.4 152.515 442.357 153.585 443.6C158.933 449.815 164.903 455.496 171.049 460.376C172.029 461.263 173.896 461.171 174.873 460.546L175.139 460.101ZM108.169 506.477C107.799 499.007 107.339 491.181 107.235 483.266C107.143 481.399 105.718 480.245 104.206 480.248C102.338 480.34 101.185 481.766 101.188 483.278C101.381 491.548 101.485 499.464 102.301 507.2C102.393 509.067 103.818 510.221 105.686 510.128C106.397 509.949 106.753 509.859 107.374 509.325C107.551 508.524 108.082 507.633 108.169 506.477ZM315.448 349.104C314.824 348.127 314.289 347.506 313.664 346.528C309.562 340.755 304.483 335.607 299.138 330.903C297.712 329.75 295.845 329.842 294.691 331.267C293.538 332.693 293.63 334.56 295.056 335.714C299.956 340.151 304.59 345.034 308.513 350.096C309.137 351.073 309.672 351.694 310.297 352.672C311.366 353.915 313.413 354.533 314.656 353.464C316.255 352.304 316.518 350.347 315.448 349.104ZM107.724 459.697C108.154 452.403 108.495 444.754 109.192 437.015L109.368 436.214C109.721 434.612 108.206 433.103 106.605 432.751C105.003 432.398 103.494 433.913 103.141 435.514L102.965 436.315C102.268 444.054 101.572 451.793 101.141 459.087C101.144 460.599 102.303 462.197 104.171 462.105C104.972 462.281 105.593 461.746 106.304 461.567C107.105 461.743 107.637 460.853 107.724 459.697ZM144.825 420.849C140.899 414.275 137.595 407.166 134.736 400.323C133.932 398.635 132.241 397.927 130.908 398.641C129.22 399.444 128.512 401.136 129.226 402.468C131.909 410.112 135.568 417.131 139.584 424.06C140.298 425.393 142.345 426.012 144.033 425.208L144.389 425.118C145.276 424.138 145.539 422.181 144.825 420.849ZM280.532 321.6C281.33 320.265 280.792 318.131 279.101 317.423C271.712 313.613 263.79 310.693 256.228 309.196C254.626 308.843 253.028 310.002 252.675 311.604C252.322 313.205 253.482 314.804 255.083 315.157C262.29 316.744 269.766 319.398 276.354 323.031C277.6 323.474 278.757 323.56 279.644 322.58C280.266 322.046 280.621 321.956 280.532 321.6ZM115.196 414.324C117.674 407.649 121.128 400.349 125.028 393.316C125.826 391.98 125.288 389.847 123.953 389.049C122.617 388.251 120.484 388.789 119.686 390.124C115.52 397.603 112.065 404.903 109.322 412.023C108.614 413.714 109.417 415.402 111.109 416.111C111.999 416.642 113.421 416.284 114.043 415.749C114.664 415.214 114.93 414.769 115.196 414.324ZM235.33 310.303C235.237 308.436 233.812 307.282 231.944 307.375C224.119 307.834 216.206 309.45 208.207 312.223C206.429 312.671 205.721 314.362 206.169 316.14C206.617 317.918 208.309 318.626 210.086 318.178C217.374 315.585 224.931 314.058 232.401 313.688C233.112 313.509 233.468 313.42 234.089 312.885C235.067 312.26 235.598 311.37 235.33 310.303ZM137.976 374.169C142.501 368.113 147.736 361.877 153.151 356.353C154.394 355.283 154.211 353.06 153.142 351.817C152.072 350.574 149.849 350.756 148.606 351.826C143.191 357.35 137.956 363.586 133.166 370.087C132.012 371.513 132.461 373.291 133.886 374.444C134.866 375.331 136.378 375.329 137.621 374.259C137.621 374.259 137.621 374.259 137.976 374.169ZM128.734 378.011C127.563 370.365 127.104 362.539 127.534 355.246C127.531 353.734 126.372 352.135 124.505 352.228C122.993 352.23 121.394 353.39 121.131 355.347C120.88 363.352 121.073 371.623 122.689 379.535C123.137 381.313 124.563 382.466 126.341 382.018C126.696 381.929 127.407 381.749 127.673 381.304C128.205 380.414 129.003 379.078 128.734 378.011ZM190.264 323.552C189.55 322.22 187.503 321.601 186.17 322.315C179.596 326.241 172.756 330.612 166.185 336.05C164.942 337.119 164.679 339.077 165.749 340.32C166.819 341.563 168.776 341.826 170.019 340.756C176.324 335.764 182.808 331.482 189.026 327.646L189.382 327.556C190.625 326.487 190.978 324.885 190.264 323.552ZM130.87 332.471C132.813 325.174 135.556 318.054 138.655 310.844C139.364 309.153 138.56 307.465 137.224 306.667C135.533 305.959 133.845 306.762 133.047 308.098C129.682 315.753 126.673 323.319 124.73 330.615C124.377 332.217 125.181 333.905 126.783 334.258C127.583 334.434 128.65 334.165 129.272 333.63C130.428 333.717 130.694 333.272 130.87 332.471ZM149.823 290.634C153.902 284.312 158.336 277.9 163.572 271.664C164.725 270.239 164.277 268.461 163.207 267.218C161.782 266.064 160.004 266.512 158.761 267.582C153.526 273.818 148.825 280.675 144.746 286.997C143.948 288.333 144.131 290.556 145.822 291.264C146.802 292.152 148.224 291.793 149.201 291.169C149.557 291.079 149.912 290.99 149.823 290.634ZM179.281 254.469C184.695 248.944 190.555 243.686 196.505 238.783C197.748 237.713 198.011 235.756 196.941 234.513C195.871 233.27 193.914 233.007 192.671 234.076C186.456 239.425 180.596 244.683 175.181 250.208C173.938 251.277 174.12 253.5 175.19 254.743C176.26 255.986 178.127 255.894 179.015 254.914C178.925 254.558 178.925 254.558 179.281 254.469ZM235.933 207.668C235.219 206.335 233.172 205.716 231.84 206.43C224.91 210.446 218.426 214.727 211.586 219.098C210.343 220.168 209.724 222.215 210.794 223.458C211.864 224.701 213.91 225.32 215.154 224.25C221.548 219.613 228.122 215.687 235.051 211.672L235.407 211.582C236.295 210.602 236.647 209 235.933 207.668Z" fill="#1C287D"/>
<path d="M127.625 588.173C127.625 588.173 127.715 588.529 127.625 588.173C126.027 589.332 124.425 588.98 123.266 587.381C122.017 585.427 120.054 582.14 117.553 576.72C116.75 575.031 117.458 573.34 119.146 572.536C120.834 571.733 122.526 572.441 123.329 574.129C125.026 577.861 127.079 581.504 128.417 583.814C129.577 585.412 129.313 587.37 127.625 588.173Z" fill="#1C287D"/>
<path d="M493.176 86.4856C493.708 85.5952 493.884 84.7945 493.705 84.0833C493.523 81.8602 492.629 79.8163 491.114 78.3073C488.975 75.8211 485.682 74.7602 481.502 74.6793C443.259 74.4858 405.003 68.2446 367.549 62.1798C337.657 57.6124 306.875 52.513 276.098 50.4376C274.586 50.4405 270.317 50.004 268.544 53.4759C266.417 57.0375 269.094 61.6572 272.392 65.742C275.691 69.8268 279.969 74.7991 284.604 79.6818C290.932 86.7847 297.705 94.1535 300.827 99.0391C302.97 103.037 304.756 107.125 304.756 107.125C305.56 108.813 306.008 110.591 306.722 111.924C307.17 113.702 309.306 114.676 310.995 113.872C312.773 113.424 314.816 112.531 316.684 112.438C316.684 112.438 317.751 112.169 318.817 111.901C322.818 111.27 407.195 97.9457 443.204 92.2735C449.428 91.4611 453.874 91.0969 458.231 90.377C469.256 89.1107 480.282 87.8444 491.042 87.0234C491.753 86.8441 492.109 86.7545 492.82 86.5753C492.91 86.9308 492.82 86.5753 493.176 86.4856ZM310.888 104.445C310.798 104.089 309.011 100.002 306.424 95.7377C303.123 90.1409 296.26 82.4165 289.486 75.0476C285.387 70.7865 281.643 66.4357 278.79 62.6169C276.116 59.5092 275.312 57.8209 274.688 56.8438C275.043 56.7542 275.399 56.6645 275.844 56.9305C306.175 58.74 336.958 63.8394 366.494 68.4964C403.948 74.5613 442.915 80.6232 481.603 81.0826C482.76 81.1693 483.561 81.3457 484.361 81.522C475.113 82.3402 466.311 83.4244 457.063 84.2425C452.616 84.6068 448.26 85.3267 442.036 86.1391C406.027 91.8112 321.561 104.78 317.294 105.856C316.227 106.125 315.16 106.393 314.805 106.483C313.738 106.752 312.671 107.021 311.605 107.29C311.336 106.223 311.157 105.512 310.888 104.445Z" fill="#1C287D"/>
<path d="M493.346 82.6609C492.722 81.6838 491.386 80.8859 490.319 81.1547C479.204 82.0654 468.178 83.3317 457.152 84.598C452.706 84.9623 448.35 85.6821 442.125 86.4945C441.77 86.5841 392.599 92.5484 317.384 106.211C316.317 106.48 312.671 107.021 308.494 108.452C306.716 108.9 306.008 110.591 306.456 112.369C306.456 112.369 306.814 113.791 306.817 115.303C306.575 127.844 292.401 157.132 292.49 157.487C287.53 167.813 284.697 174.578 283.459 178.672C282.398 181.964 281.783 185.523 284.367 188.275C287.752 191.204 292.641 189.593 297.174 188.073C314.86 181.724 329.164 173.959 334.761 170.658L335.117 170.568C335.117 170.568 335.472 170.479 335.828 170.389C336.539 170.21 337.516 169.585 338.849 168.871C339.56 168.692 340.182 168.157 340.893 167.978C340.803 167.622 340.713 167.267 340.624 166.911C339.82 165.223 339.016 163.535 338.213 161.846C335.903 163.185 334.481 163.543 333.504 164.168C333.148 164.257 332.792 164.347 332.437 164.437L331.726 164.616C326.395 167.472 312.18 175.593 294.76 181.496C291.826 181.857 290.137 182.661 288.981 182.574C289.157 181.774 289.244 180.617 290.395 177.68C291.987 173.497 294.378 167.978 298.365 159.788C298.807 158.542 313.247 128.809 313.487 114.757C313.397 114.401 313.663 113.956 313.573 113.6C316.062 112.973 317.84 112.525 318.551 112.346C393.767 98.6828 442.227 92.8978 442.938 92.7186C449.162 91.9062 453.608 91.5419 457.965 90.8221C461.255 90.3711 464.634 90.2757 467.568 89.9143C475.301 87.5871 480.901 85.7976 482.589 84.9939C482.945 84.9043 484.989 84.011 487.657 84.0948C489.169 84.0919 490.325 84.1786 490.77 84.4446C492.019 86.3988 484.561 92.8166 478.877 97.2744C481.187 95.9359 483.231 95.0426 485.275 94.1493C486.608 93.4353 487.94 92.7212 489.183 91.6516C492.736 89.2434 495.133 86.7486 493.881 83.2824C493.881 83.2824 493.791 82.9268 493.346 82.6609Z" fill="#1C287D"/>
<path d="M367.582 218.355C373.884 211.85 382.669 201.694 393.319 189.934C419.323 161.068 454.643 121.156 476.134 104.395C476.49 104.305 476.756 103.86 477.111 103.77C479.687 101.987 484.038 98.243 487.767 95.0341C489.897 92.9845 491.406 91.4696 492.56 90.0444C493.447 89.0644 495.665 85.8584 494.237 83.193C492.988 81.2387 490.675 81.0653 488.452 81.2475C485.428 81.2533 483.295 81.791 482.317 82.4154C472.63 85.9915 336.281 128.676 333.882 129.659C333.526 129.749 331.127 130.732 328.106 132.25C328.106 132.25 325.085 133.767 323.576 135.282C320.913 138.222 322.7 142.31 323.504 143.998C324.842 146.308 326.716 149.239 328.768 152.882C331.801 157.412 335.368 162.563 337.869 167.984C341.887 176.425 345.648 189.848 348.782 200.781C351.289 209.225 352.902 215.626 354.509 219.002C355.402 221.046 356.917 222.555 358.964 223.174C361.366 223.703 363.5 223.165 365.098 222.006C365.717 219.959 366.96 218.889 367.582 218.355ZM360.016 215.345C358.588 212.68 356.796 205.568 354.558 198.191C351.335 186.902 347.484 173.124 343.376 164.327C340.786 158.551 337.129 153.044 334.006 148.158C331.688 144.961 329.011 140.341 328.207 138.653C328.829 138.118 329.54 137.939 330.161 137.404C332.471 136.066 334.605 135.528 334.96 135.438C336.027 135.169 472.997 91.9496 483.751 88.1047C484.107 88.0151 484.463 87.9254 484.818 87.8358C483.931 88.8158 483.043 89.7959 481.444 90.9551C477.981 93.7188 474.608 96.8381 472.387 98.5322C472.032 98.6218 471.766 99.067 471.41 99.1566C449.653 116.363 413.977 156.365 388.063 185.586C377.769 197.257 368.894 207.057 362.592 213.562C361.438 214.987 360.461 215.611 360.106 215.701C360.106 215.701 360.106 215.701 360.016 215.345Z" fill="#1C287D"/>
<path d="M296.625 179.891C304.696 168.403 313.033 156.469 321.104 144.981L296.625 179.891Z" fill="#1C287D"/>
<path d="M298.498 182.823C297.521 183.448 296.009 183.45 294.673 182.653C293.248 181.499 292.71 179.366 293.864 177.94L318.343 143.03C319.497 141.605 321.63 141.067 323.056 142.22C324.481 143.374 325.019 145.507 323.865 146.932L299.385 181.843C299.119 182.288 298.764 182.378 298.498 182.823Z" fill="#1C287D"/>
<path d="M304.184 179.877C311.99 168.834 319.439 157.88 327.245 146.837L304.184 179.877Z" fill="#1C287D"/>
<path d="M306.057 182.808C305.08 183.433 303.568 183.436 302.233 182.638C300.808 181.484 300.27 179.351 301.423 177.926L324.484 144.886C325.637 143.46 327.771 142.923 329.196 144.076C330.621 145.23 331.159 147.363 330.005 148.788L306.945 181.828C306.679 182.274 306.323 182.363 306.057 182.808Z" fill="#1C287D"/>
<path d="M319.289 172.289C323.102 166.412 326.915 160.534 331.084 154.567L319.289 172.289Z" fill="#1C287D"/>
<path d="M321.073 174.864C320.096 175.488 318.584 175.491 317.338 175.049C315.913 173.896 315.465 172.118 316.528 170.337L328.323 152.616C329.477 151.19 331.61 150.653 333.035 151.806C334.46 152.96 334.909 154.738 333.845 156.518L322.05 174.24C321.694 174.329 321.428 174.774 321.073 174.864Z" fill="#1C287D"/>
<path d="M332.353 167.105C334.038 164.789 335.634 162.118 337.32 159.803L332.353 167.105Z" fill="#1C287D"/>
<path d="M334.226 170.037C333.249 170.661 331.737 170.664 330.402 169.866C328.976 168.713 328.439 166.579 329.592 165.154L334.559 157.852C335.712 156.426 337.846 155.889 339.271 157.042C340.696 158.196 341.234 160.329 340.08 161.754L335.114 169.057C334.848 169.502 334.582 169.947 334.226 170.037Z" fill="#1C287D"/>
<path d="M340.355 165.845C339.551 164.156 338.747 162.468 337.944 160.78C336.255 161.584 334.567 162.387 332.879 163.191C318.396 170.245 307.289 175.691 299.379 178.819C298.047 179.533 296.624 179.892 295.647 180.516C301.946 172.5 309.309 162.702 315.163 154.42C319.422 148.809 323.59 142.842 324.478 141.862C324.478 141.862 325.099 141.327 325.721 140.792C324.917 139.104 324.914 137.592 325.446 136.702C326.068 136.167 327.666 135.008 328.999 134.294C331.665 132.865 334.154 132.238 334.509 132.148C337.354 131.432 473.257 88.4807 482.945 84.9046C483.3 84.815 485.344 83.9217 488.012 84.0055C489.524 84.0026 490.681 84.0893 491.126 84.3553C491.75 85.3324 490.065 87.648 487.313 90.2325C489.001 89.4288 490.6 88.2695 492.644 87.3762L489.964 81.2447C452.099 93.0571 328.016 131.894 325.261 132.967C323.573 133.77 322.24 134.484 322.24 134.484L321.885 134.574L321.529 134.664C321.529 134.664 319.665 136.268 319.754 136.624C318.245 138.139 315.14 142.325 309.552 150.162C303.077 158.979 295.271 170.022 288.617 178.128C287.197 179.999 285.954 181.068 285.422 181.959C284.801 182.494 284.535 182.939 284.269 183.384C282.849 185.255 283.653 186.943 284.188 187.564C285.616 190.23 289.172 189.334 290.238 189.065C292.016 188.617 294.505 187.989 297.526 186.471C304.369 183.612 314.944 179.056 329.072 172.092C332.804 170.395 336.802 168.253 340.89 166.466C340.534 166.556 340.444 166.2 340.355 165.845Z" fill="#1C287D"/>
</svg>
