<svg width="584" height="583" viewBox="0 0 584 583" fill="none" xmlns="http://www.w3.org/2000/svg">
<path d="M318.899 192.022C319.257 192.103 319.533 192.542 319.533 192.542C323.027 193.713 326.521 194.885 330.292 196.495C331.998 197.259 333.673 196.512 334.437 194.806C335.201 193.099 334.454 191.425 332.748 190.661C328.978 189.05 325.483 187.879 321.632 186.626C319.844 186.219 318.169 186.967 317.844 188.397C317.161 189.746 317.989 191.062 318.899 192.022Z" fill="#4BA22D"/>
<path d="M287.757 456.085C286.49 455.045 286.181 453.094 287.58 451.908C288.62 450.64 290.571 450.332 291.757 451.73C297.379 456.771 303.879 461.259 310.623 464.674C312.33 465.439 312.638 467.389 311.955 468.738C311.272 470.087 309.24 470.753 307.891 470.07C303.845 468.02 300.237 465.695 296.353 462.931C293.461 460.768 290.211 458.524 287.757 456.085ZM271.704 437.389C267.285 430.366 263.663 423.148 261.358 415.102C260.968 413.509 261.732 411.802 263.325 411.413C264.918 411.023 266.625 411.787 267.014 413.38C269.125 420.63 272.471 427.409 276.614 433.993C277.442 435.31 276.954 437.455 275.637 438.284C274.678 439.194 273.248 438.868 272.257 438.266C272.257 438.266 271.98 437.827 271.704 437.389ZM328.272 474.708C328.679 472.92 330.353 472.173 332.141 472.58C335.001 473.231 337.862 473.882 340.803 474.176C345.176 474.795 349.987 475.137 354.603 474.684C356.114 474.652 357.739 475.774 357.69 477.643C357.722 479.154 356.6 480.779 354.731 480.73C349.757 481.102 344.589 480.678 339.859 479.978C336.56 479.603 333.699 478.952 330.481 478.22C330.124 478.138 329.766 478.057 329.49 477.618C328.417 477.374 327.946 476.138 328.272 474.708ZM258.537 391.143C258.816 383.309 260.33 375.003 262.917 366.942C263.323 365.155 265.355 364.489 266.704 365.172C268.492 365.579 269.158 367.611 268.475 368.96C266.051 376.306 264.699 383.896 264.144 391.291C264.095 393.16 262.697 394.346 260.828 394.297C260.112 394.134 259.755 394.053 259.04 393.89C258.845 393.093 258.293 392.215 258.537 391.143ZM374.887 474.787C374.498 473.194 375.262 471.488 376.855 471.098C384.105 468.988 391.16 466.081 397.744 461.938C399.061 461.109 401.206 461.598 401.953 463.272C402.782 464.589 402.293 466.734 400.619 467.481C393.32 471.461 385.826 474.645 378.495 477.113C377.698 477.308 376.626 477.064 375.992 476.543C375.716 476.104 375.163 475.226 374.887 474.787ZM478.304 544.206C479.932 537.055 481.283 529.465 482.358 521.436C482.765 519.648 484.163 518.462 485.951 518.869C487.739 519.276 488.925 520.674 488.518 522.462C487.524 530.133 486.091 538.081 484.383 545.59C483.976 547.377 482.301 548.125 480.514 547.718C480.156 547.636 479.798 547.555 479.522 547.116C478.531 546.514 478.06 545.279 478.304 544.206ZM416.682 453.085C415.496 451.687 415.903 449.9 416.944 448.632C422.618 443.53 428.373 438.071 433.056 432.367C434.097 431.1 436.047 430.791 437.315 431.832C438.582 432.873 438.89 434.823 437.85 436.091C432.646 442.428 426.81 448.245 420.778 453.266C419.819 454.175 417.95 454.126 416.958 453.524L416.682 453.085ZM484.706 497.902C484.903 490.425 485.182 482.591 485.103 474.675C485.153 472.806 486.551 471.62 488.062 471.588C489.932 471.637 491.118 473.035 491.15 474.547C491.147 482.82 491.226 490.736 490.59 498.488C490.54 500.358 489.142 501.544 487.273 501.494C486.558 501.332 486.2 501.25 485.567 500.73C485.372 499.933 484.819 499.056 484.706 497.902ZM273.846 345.361C274.447 344.37 274.968 343.736 275.569 342.745C279.537 336.878 284.496 331.614 289.731 326.788C291.129 325.602 292.999 325.651 294.185 327.049C295.371 328.448 295.321 330.317 293.923 331.503C289.127 336.052 284.607 341.041 280.802 346.192C280.2 347.183 279.68 347.817 279.078 348.808C278.038 350.076 276.006 350.742 274.738 349.701C273.113 348.579 272.805 346.628 273.846 345.361ZM484.07 451.123C483.471 443.841 482.953 436.202 482.078 428.481L481.883 427.685C481.494 426.092 482.973 424.548 484.566 424.159C486.159 423.769 487.703 425.249 488.092 426.842L488.287 427.638C489.163 435.359 490.038 443.08 490.637 450.361C490.669 451.873 489.547 453.498 487.678 453.449C486.881 453.643 486.248 453.123 485.533 452.96C484.736 453.155 484.184 452.277 484.07 451.123ZM446.081 413.143C449.854 406.48 452.993 399.297 455.693 392.39C456.458 390.684 458.132 389.937 459.481 390.62C461.187 391.384 461.935 393.058 461.251 394.407C458.746 402.111 455.249 409.212 451.395 416.233C450.712 417.582 448.68 418.247 446.974 417.483L446.616 417.402C445.706 416.442 445.398 414.492 446.081 413.143ZM308.117 317.058C307.289 315.741 307.777 313.596 309.451 312.848C316.75 308.868 324.602 305.766 332.128 304.095C333.721 303.705 335.346 304.827 335.735 306.42C336.125 308.013 335.003 309.638 333.41 310.028C326.242 311.781 318.829 314.607 312.326 318.392C311.091 318.863 309.937 318.976 309.027 318.017C308.393 317.497 308.036 317.415 308.117 317.058ZM475.551 405.935C472.92 399.319 469.298 392.102 465.236 385.16C464.408 383.843 464.896 381.698 466.213 380.869C467.53 380.041 469.675 380.529 470.504 381.846C474.841 389.227 478.463 396.444 481.371 403.499C482.118 405.174 481.353 406.88 479.679 407.627C478.801 408.18 477.371 407.854 476.737 407.334C476.103 406.813 475.827 406.374 475.551 405.935ZM353.046 304.719C353.095 302.85 354.493 301.663 356.363 301.713C364.197 301.992 372.144 303.424 380.205 306.011C381.993 306.418 382.74 308.092 382.333 309.88C381.927 311.668 380.252 312.415 378.464 312.008C371.119 309.584 363.528 308.233 356.052 308.035C355.337 307.873 354.979 307.791 354.345 307.271C353.354 306.669 352.802 305.791 353.046 304.719ZM451.849 366.318C447.186 360.368 441.808 354.255 436.267 348.857C435 347.816 435.131 345.589 436.171 344.322C437.212 343.055 439.439 343.185 440.706 344.226C446.247 349.624 451.625 355.737 456.564 362.126C457.75 363.524 457.343 365.312 455.945 366.498C454.986 367.408 453.474 367.44 452.207 366.399C452.207 366.399 452.207 366.399 451.849 366.318ZM461.178 369.945C462.172 362.274 462.45 354.44 461.851 347.158C461.819 345.646 462.941 344.021 464.81 344.071C466.322 344.039 467.947 345.161 468.255 347.111C468.691 355.108 468.689 363.381 467.256 371.329C466.849 373.117 465.451 374.303 463.663 373.896C463.306 373.815 462.591 373.652 462.314 373.213C461.762 372.335 460.934 371.018 461.178 369.945ZM398.406 316.923C399.089 315.574 401.121 314.908 402.47 315.591C409.133 319.364 416.072 323.576 422.767 328.861C424.034 329.901 424.342 331.852 423.302 333.119C422.261 334.387 420.311 334.695 419.043 333.654C412.624 328.809 406.043 324.678 399.738 320.987L399.38 320.905C398.113 319.865 397.723 318.272 398.406 316.923ZM457.99 324.467C455.879 317.217 452.972 310.162 449.707 303.026C448.96 301.351 449.724 299.645 451.041 298.816C452.715 298.069 454.422 298.834 455.25 300.15C458.791 307.726 461.975 315.22 464.085 322.469C464.475 324.062 463.711 325.769 462.118 326.158C461.321 326.353 460.249 326.109 459.615 325.589C458.461 325.702 458.185 325.263 457.99 324.467ZM438.076 283.079C433.851 276.852 429.27 270.545 423.892 264.431C422.706 263.033 423.113 261.246 424.153 259.978C425.551 258.792 427.339 259.199 428.607 260.239C433.985 266.353 438.843 273.099 443.067 279.326C443.895 280.643 443.764 282.869 442.09 283.616C441.131 284.526 439.701 284.201 438.709 283.599C438.352 283.518 437.994 283.436 438.076 283.079ZM407.79 247.604C402.249 242.206 396.269 237.084 390.208 232.32C388.94 231.279 388.632 229.329 389.673 228.061C390.713 226.794 392.664 226.486 393.931 227.526C400.269 232.73 406.249 237.851 411.789 243.249C413.057 244.29 412.926 246.517 411.886 247.784C410.845 249.051 408.976 249.002 408.066 248.043C408.147 247.685 408.147 247.685 407.79 247.604ZM350.071 202.125C350.754 200.776 352.786 200.11 354.134 200.793C361.155 204.647 367.736 208.778 374.675 212.99C375.943 214.03 376.609 216.062 375.568 217.33C374.527 218.597 372.495 219.263 371.228 218.222C364.728 213.734 358.065 209.961 351.045 206.107L350.687 206.026C349.777 205.067 349.388 203.474 350.071 202.125Z" fill="#4BA22D"/>
<path d="M467.143 580.026C467.143 580.026 467.062 580.383 467.143 580.026C468.768 581.148 470.361 580.758 471.483 579.133C472.687 577.15 474.573 573.819 476.948 568.342C477.712 566.636 476.965 564.962 475.259 564.197C473.552 563.433 471.878 564.18 471.114 565.886C469.503 569.657 467.535 573.346 466.251 575.686C465.129 577.311 465.437 579.261 467.143 580.026Z" fill="#4BA22D"/>
<path d="M90.0963 86.92C89.5439 86.0421 89.3492 85.2456 89.5119 84.5305C89.6426 82.3038 90.4884 80.2398 91.968 78.6962C94.0492 76.1613 97.3166 75.0245 101.494 74.847C139.723 73.7698 177.824 66.6462 215.128 59.7174C244.906 54.4604 275.562 48.651 306.283 45.8648C307.794 45.8328 312.053 45.2977 313.905 48.7278C316.114 52.2393 313.545 56.9196 310.341 61.0795C307.138 65.2395 302.976 70.3093 298.455 75.2978C292.293 82.545 285.692 90.0684 282.683 95.0249C280.634 99.0714 278.943 103.199 278.943 103.199C278.178 104.906 277.771 106.693 277.088 108.042C276.681 109.83 274.568 110.853 272.862 110.089C271.074 109.682 269.01 108.836 267.141 108.787C267.141 108.787 266.068 108.543 264.995 108.299C260.981 107.761 176.319 96.3899 140.189 91.5514C133.947 90.8831 129.494 90.6217 125.122 90.0027C114.07 88.9916 103.018 87.9804 92.2416 87.4082C91.5265 87.2455 91.1689 87.1641 90.4538 87.0013C90.3725 87.3589 90.4538 87.0013 90.0963 86.92ZM272.751 100.662C272.832 100.304 274.524 96.1764 277.012 91.8537C280.183 86.1821 286.866 78.3012 293.467 70.7777C297.467 66.423 301.109 61.9869 303.873 58.1031C306.475 54.9344 307.239 53.228 307.841 52.2367C307.483 52.1554 307.126 52.074 306.687 52.3502C276.406 54.8602 245.749 60.6695 216.329 66.0079C179.024 72.9367 140.208 79.8976 101.541 81.251C100.387 81.3644 99.5901 81.5592 98.7936 81.754C108.058 82.3582 116.883 83.2386 126.148 83.8429C130.601 84.1043 134.973 84.7233 141.215 85.3916C177.345 90.2301 262.088 101.244 266.379 102.22C267.451 102.464 268.524 102.709 268.882 102.79C269.954 103.034 271.027 103.278 272.1 103.522C272.344 102.45 272.507 101.735 272.751 100.662Z" fill="#4BA22D"/>
<path d="M89.8374 83.1001C90.4391 82.1088 91.7559 81.2802 92.8286 81.5244C103.962 82.1779 115.014 83.1891 126.066 84.2002C130.52 84.4616 134.892 85.0806 141.133 85.7489C141.491 85.8303 190.787 90.6566 266.297 102.578C267.37 102.822 271.027 103.278 275.236 104.612C277.024 105.019 277.771 106.693 277.364 108.481C277.364 108.481 277.039 109.911 277.071 111.423C277.603 123.955 292.45 152.907 292.369 153.264C297.567 163.473 300.555 170.171 301.887 174.235C303.024 177.502 303.722 181.046 301.201 183.857C297.885 186.863 292.96 185.366 288.394 183.95C270.565 178.012 256.085 170.58 250.414 167.409L250.056 167.327C250.056 167.327 249.699 167.246 249.341 167.164C248.626 167.002 247.635 166.4 246.286 165.717C245.571 165.554 244.937 165.034 244.222 164.871C244.303 164.513 244.385 164.156 244.466 163.798C245.231 162.092 245.995 160.386 246.759 158.679C249.1 159.964 250.53 160.289 251.521 160.891C251.879 160.973 252.236 161.054 252.594 161.135L253.309 161.298C258.704 164.03 273.103 171.82 290.655 177.319C293.597 177.613 295.303 178.377 296.457 178.264C296.262 177.467 296.149 176.313 294.931 173.404C293.242 169.258 290.724 163.796 286.549 155.701C286.078 154.465 270.955 125.074 270.391 111.031C270.472 110.673 270.196 110.234 270.277 109.877C267.774 109.307 265.987 108.9 265.272 108.737C189.761 96.8164 141.18 92.1529 140.465 91.9901C134.224 91.3218 129.77 91.0604 125.398 90.4414C122.099 90.0666 118.718 90.0493 115.776 89.7558C107.991 87.6079 102.352 85.9483 100.645 85.1839C100.288 85.1025 98.2239 84.2566 95.5583 84.4021C94.0467 84.4341 92.8926 84.5476 92.4537 84.8237C91.2503 86.8063 98.8551 93.0501 104.64 97.3753C102.3 96.0906 100.236 95.2447 98.172 94.3989C96.8232 93.7158 95.4744 93.0328 94.2069 91.9921C90.5993 89.6668 88.1457 87.228 89.3171 83.7338C89.3171 83.7338 89.3985 83.3762 89.8374 83.1001Z" fill="#4BA22D"/>
<path d="M218.704 215.851C212.254 209.494 203.236 199.544 192.317 188.033C165.653 159.776 129.42 120.691 107.547 104.43C107.19 104.349 106.914 103.91 106.556 103.829C103.94 102.105 99.5037 98.4629 95.7013 95.341C93.5239 93.3412 91.9803 91.8616 90.7942 90.4634C89.8843 89.5042 87.5935 86.3503 88.9596 83.6526C90.163 81.67 92.4711 81.4432 94.6978 81.5739C97.721 81.5098 99.8664 81.9981 100.858 82.5998C110.625 85.951 247.924 125.473 250.345 126.401C250.703 126.482 253.124 127.409 256.18 128.857C256.18 128.857 259.235 130.304 260.779 131.784C263.508 134.662 261.817 138.79 261.052 140.496C259.767 142.836 257.962 145.81 255.994 149.499C253.067 154.098 249.62 159.33 247.245 164.807C243.423 173.339 239.973 186.845 237.093 197.848C234.782 206.348 233.317 212.784 231.788 216.196C230.943 218.26 229.463 219.804 227.431 220.47C225.042 221.054 222.896 220.566 221.271 219.444C220.606 217.412 219.338 216.371 218.704 215.851ZM226.198 212.668C227.564 209.97 229.192 202.819 231.259 195.392C234.22 184.031 237.751 170.168 241.655 161.278C244.111 155.444 247.64 149.854 250.648 144.897C252.892 141.647 255.462 136.967 256.226 135.261C255.593 134.74 254.878 134.578 254.244 134.057C251.904 132.773 249.758 132.284 249.401 132.203C248.328 131.959 110.396 91.916 99.5556 88.3206C99.1981 88.2393 98.8405 88.1579 98.4829 88.0765C99.3928 89.0358 100.303 89.995 101.928 91.117C105.454 93.7999 108.899 96.8404 111.158 98.4828C111.515 98.5641 111.791 99.0031 112.149 99.0844C134.297 115.784 170.889 154.95 197.471 183.565C208.032 194.994 217.131 204.587 223.582 210.944C224.768 212.342 225.759 212.944 226.117 213.025C226.117 213.025 226.117 213.025 226.198 212.668Z" fill="#4BA22D"/>
<path d="M288.754 175.758C280.419 164.46 271.808 152.722 263.474 141.423L288.754 175.758Z" fill="#4BA22D"/>
<path d="M286.949 178.732C287.94 179.334 289.452 179.302 290.768 178.474C292.167 177.287 292.655 175.142 291.469 173.744L266.189 139.408C265.003 138.01 262.857 137.522 261.459 138.708C260.061 139.894 259.573 142.039 260.759 143.438L286.039 177.773C286.315 178.212 286.673 178.294 286.949 178.732Z" fill="#4BA22D"/>
<path d="M281.195 175.919C273.137 165.059 265.436 154.28 257.378 143.42L281.195 175.919Z" fill="#4BA22D"/>
<path d="M279.391 178.893C280.382 179.494 281.894 179.462 283.21 178.634C284.609 177.448 285.097 175.302 283.911 173.904L260.093 141.406C258.907 140.007 256.761 139.519 255.363 140.705C253.965 141.891 253.477 144.037 254.663 145.435L278.481 177.933C278.757 178.372 279.115 178.454 279.391 178.893Z" fill="#4BA22D"/>
<path d="M265.919 168.681C261.971 162.894 258.024 157.106 253.718 151.238L265.919 168.681Z" fill="#4BA22D"/>
<path d="M264.196 171.297C265.187 171.899 266.699 171.867 267.934 171.396C269.332 170.21 269.739 168.422 268.634 166.666L256.433 149.222C255.247 147.824 253.102 147.336 251.704 148.522C250.305 149.708 249.898 151.496 251.003 153.252L263.204 170.696C263.562 170.777 263.838 171.216 264.196 171.297Z" fill="#4BA22D"/>
<path d="M252.739 163.801C251.001 161.525 249.344 158.892 247.605 156.616L252.739 163.801Z" fill="#4BA22D"/>
<path d="M250.934 166.775C251.925 167.377 253.437 167.345 254.754 166.516C256.152 165.33 256.64 163.185 255.454 161.787L250.32 154.601C249.134 153.203 246.989 152.715 245.591 153.901C244.193 155.087 243.704 157.232 244.89 158.63L250.024 165.816C250.3 166.255 250.577 166.694 250.934 166.775Z" fill="#4BA22D"/>
<path d="M244.71 162.726C245.475 161.02 246.239 159.313 247.004 157.607C248.71 158.371 250.417 159.136 252.123 159.9C266.765 166.617 277.995 171.806 285.975 174.75C287.324 175.433 288.754 175.759 289.745 176.36C283.262 168.492 275.675 158.867 269.631 150.722C265.244 145.211 260.939 139.342 260.029 138.383C260.029 138.383 259.395 137.862 258.761 137.342C259.526 135.636 259.494 134.124 258.941 133.246C258.308 132.726 256.683 131.604 255.334 130.921C252.636 129.555 250.133 128.985 249.776 128.904C246.915 128.253 110.055 88.454 100.288 85.1027C99.9305 85.0213 97.8665 84.1755 95.2009 84.321C93.6893 84.353 92.5352 84.4664 92.0963 84.7426C91.4946 85.7339 93.233 88.0099 96.0441 90.5301C94.3377 89.7657 92.7128 88.6437 90.6488 87.7979L93.1862 81.606C131.314 92.5402 256.261 128.499 259.04 129.508C260.746 130.272 262.095 130.955 262.095 130.955L262.453 131.037L262.81 131.118C262.81 131.118 264.712 132.679 264.63 133.037C266.174 134.516 269.375 138.629 275.142 146.335C281.82 155.001 289.878 165.861 296.719 173.811C298.181 175.648 299.448 176.688 300.001 177.566C300.634 178.087 300.911 178.526 301.187 178.965C302.649 180.802 301.885 182.508 301.364 183.142C299.998 185.839 296.423 185.026 295.35 184.782C293.562 184.375 291.059 183.805 288.004 182.357C281.097 179.657 270.42 175.347 256.135 168.711C252.364 167.101 248.318 165.051 244.19 163.36C244.548 163.441 244.629 163.083 244.71 162.726Z" fill="#4BA22D"/>
</svg>
