<svg width="144" height="144" viewBox="0 0 144 144" fill="none" xmlns="http://www.w3.org/2000/svg">
<path d="M141.6 122.4H139.2V48.0008C139.2 41.3841 133.817 36.0009 127.2 36.0009H110.4V28.801C110.4 28.0306 110.016 27.3298 109.406 26.8834L109.418 26.8642L73.4188 0.464396C72.574 -0.154799 71.4244 -0.154799 70.5796 0.464396L34.5799 26.8642L34.5919 26.8834C33.9847 27.3298 33.6007 28.0306 33.6007 28.801V36.0009H16.8008C10.1841 36.0009 4.80094 41.3841 4.80094 48.0008V122.4H2.40096C1.07617 122.4 0.000976562 123.473 0.000976562 124.8V132C0.000976562 138.617 5.38413 144 12.0009 144H132C138.617 144 144 138.617 144 132V124.8C144 123.473 142.925 122.4 141.6 122.4ZM110.4 60.0007C113.047 60.0007 115.2 62.1535 115.2 64.8007C115.2 67.4478 113.047 69.6006 110.4 69.6006V60.0007ZM72.0004 5.37716L103.815 28.7074L96.0002 33.9153V28.801C96.0002 27.4738 94.925 26.401 93.6002 26.401H50.4006C49.0758 26.401 48.0006 27.4738 48.0006 28.801V33.9153L40.1862 28.7074L72.0004 5.37716ZM91.2002 31.2009V37.1169L72.0004 49.916L52.8005 37.1169V31.2009H91.2002ZM38.4007 33.2841L70.6684 54.7975C71.4748 55.3375 72.5236 55.3375 73.33 54.7975L105.6 33.2841V69.6006H38.4007V33.2841ZM36.0007 74.4006H108H110.4C115.694 74.4006 120 70.095 120 64.8007C120 59.5063 115.694 55.2007 110.4 55.2007V50.4008H124.8V112.8H19.2008V50.4008H33.6007V55.2007C28.3063 55.2007 24.0008 59.5063 24.0008 64.8007C24.0008 70.095 28.3063 74.4006 33.6007 74.4006H36.0007ZM33.6007 60.0007V69.6006C30.9535 69.6006 28.8007 67.4478 28.8007 64.8007C28.8007 62.1535 30.9535 60.0007 33.6007 60.0007ZM9.6009 48.0008C9.6009 44.0312 12.8313 40.8009 16.8008 40.8009H33.6007V45.6008H16.8008C15.476 45.6008 14.4009 46.6736 14.4009 48.0008V115.2C14.4009 116.527 15.476 117.6 16.8008 117.6H127.2C128.525 117.6 129.6 116.527 129.6 115.2V48.0008C129.6 46.6736 128.525 45.6008 127.2 45.6008H110.4V40.8009H127.2C131.169 40.8009 134.4 44.0312 134.4 48.0008V122.4H86.4003C85.0755 122.4 84.0003 123.473 84.0003 124.8C84.0003 126.125 82.9227 127.2 81.6003 127.2H62.4005C61.0781 127.2 60.0005 126.125 60.0005 124.8C60.0005 123.473 58.9253 122.4 57.6005 122.4H9.6009V48.0008ZM139.2 132C139.2 135.97 135.969 139.2 132 139.2H12.0009C8.03131 139.2 4.80094 135.97 4.80094 132V127.2H55.6109C56.6021 129.994 59.2709 132 62.4005 132H81.6003C84.7299 132 87.3987 129.994 88.3898 127.2H139.2V132Z" fill="white"/>
<path d="M74.3998 79.2006H69.5999V84.0005H74.3998V79.2006Z" fill="white"/>
<path d="M74.3998 88.8004H69.5999V93.6004H74.3998V88.8004Z" fill="white"/>
<path d="M64.8 88.8004H60V93.6004H64.8V88.8004Z" fill="white"/>
<path d="M83.9997 88.8004H79.1997V93.6004H83.9997V88.8004Z" fill="white"/>
<path d="M74.3998 98.4004H69.5999V103.2H74.3998V98.4004Z" fill="white"/>
<path d="M64.8 98.4004H60V103.2H64.8V98.4004Z" fill="white"/>
<path d="M55.2001 98.4004H50.4001V103.2H55.2001V98.4004Z" fill="white"/>
<path d="M83.9997 98.4004H79.1997V103.2H83.9997V98.4004Z" fill="white"/>
<path d="M93.5998 98.4004H88.7998V103.2H93.5998V98.4004Z" fill="white"/>
</svg>
