<svg width="150" height="150" viewBox="0 0 150 150" fill="none" xmlns="http://www.w3.org/2000/svg">
<path d="M127.5 12.5C127.5 5.50049 122 0 115 0H22.5C15.5005 0 10 5.50049 10 12.5V32.5H30V137.5C30 144.5 35.5005 150 42.5 150H127.5C134.5 150 140 144.5 140 137.5V125H127.5V12.5ZM30 27.5H15V12.5C15 8.24951 18.2495 5 22.5 5C26.7505 5 30 8.24951 30 12.5V27.5ZM35 137.5V12.5C35 9.74976 34.0002 7.24976 32.5 5H115C119.25 5 122.5 8.24951 122.5 12.5V125H50V137.5C50 141.75 46.7505 145 42.5 145C38.2495 145 35 141.75 35 137.5ZM135 130V137.5C135 141.75 131.75 145 127.5 145H52.5C54.2505 142.75 55 140.25 55 137.5V130H135Z" fill="white"/>
<path d="M97.5 80H117.5V85H97.5V80Z" fill="white"/>
<path d="M40 80H92.5V85H40V80Z" fill="white"/>
<path d="M67.5 90H117.5V95H67.5V90Z" fill="white"/>
<path d="M40 90H62.5V95H40V90Z" fill="white"/>
<path d="M85 110H117.5V115H85V110Z" fill="white"/>
<path d="M40 110H80V115H40V110Z" fill="white"/>
<path d="M74.4995 50.9998L77.5 53.0005L80.5005 50.9998C89.4995 45 95 34.7498 95 24.0002V15.7495L77.5 10L60 15.7495V24.0002C60 34.7498 65.5005 45 74.4995 50.9998ZM65 19.2505L77.5 15L90 19.2505V24.0002C90 33.2495 85.5005 41.7505 77.7502 46.9995H77.5L77.2498 46.7505C69.4995 41.7505 65 33.0005 65 23.75V19.2505Z" fill="white"/>
<path d="M85 25.2502L80 24.7498C79.4995 29.0002 77.2498 33.0005 73.75 35.5005L76.5002 39.7498C81.25 36.25 84.4995 30.9998 85 25.2502Z" fill="white"/>
<path d="M55 100H117.5V105H55V100Z" fill="white"/>
<path d="M40 100H50V105H40V100Z" fill="white"/>
<path d="M67.5 70H117.5V75H67.5V70Z" fill="white"/>
<path d="M40 70H62.5V75H40V70Z" fill="white"/>
<path d="M60 57.5H95V62.5H60V57.5Z" fill="white"/>
</svg>
