<svg width="192" height="80" viewBox="0 0 192 80" fill="none" xmlns="http://www.w3.org/2000/svg">
<path d="M5.39502 29.7876V37.4969C6.04614 36.7538 6.69727 36.1036 7.34839 35.6392C7.99951 35.1748 8.65063 34.8961 9.48779 34.6175C10.2319 34.4317 11.0691 34.246 11.9993 34.246C13.3015 34.246 14.5107 34.5246 15.5339 35.0819C16.5571 35.6392 17.3943 36.4751 17.9524 37.4969C18.3245 38.147 18.6035 38.7972 18.6965 39.6332C18.7896 40.3762 18.8826 41.3051 18.8826 42.3268V52.3582C18.8826 53.3799 18.6035 54.2158 18.1384 54.7731C17.6733 55.3304 17.0222 55.6091 16.1851 55.6091C14.4177 55.6091 13.5806 54.5874 13.5806 52.451V43.6271C13.5806 41.9553 13.3015 40.6549 12.8364 39.8189C12.3713 38.8901 11.3481 38.5186 9.95288 38.5186C9.02271 38.5186 8.18555 38.7972 7.44141 39.3545C6.69727 39.9118 6.13916 40.562 5.76709 41.4908C5.48804 42.2339 5.302 43.6271 5.302 45.6706V52.5439C5.302 53.5656 5.02295 54.4016 4.55786 54.866C4.09277 55.4233 3.44165 55.702 2.60449 55.702C0.837158 55.702 0 54.6802 0 52.5439V29.7876C0 28.7658 0.186035 27.9299 0.651123 27.3726C1.11621 26.8153 1.76733 26.5367 2.60449 26.5367C3.44165 26.5367 4.09277 26.8153 4.55786 27.3726C5.20899 27.9299 5.39502 28.673 5.39502 29.7876Z" fill="white"/>
<path d="M38.6953 46.2277H28.4634C28.4634 47.4352 28.7424 48.4569 29.2075 49.3857C29.6726 50.3146 30.3237 50.9648 31.0679 51.4292C31.812 51.8936 32.7422 52.0794 33.6724 52.0794C34.3235 52.0794 34.8816 51.9865 35.4397 51.8936C35.9978 51.7078 36.4629 51.5221 36.928 51.2434C37.3931 50.9648 37.8582 50.5932 38.2302 50.2217C38.6023 49.8502 39.1604 49.3858 39.8115 48.7356C40.0906 48.5498 40.4627 48.364 40.9277 48.364C41.4858 48.364 41.8579 48.5498 42.23 48.8285C42.6021 49.1071 42.6951 49.5715 42.6951 50.0359C42.6951 50.5004 42.509 51.0576 42.137 51.7078C41.7649 52.358 41.2068 52.9153 40.4627 53.5655C39.7185 54.1228 38.7883 54.5872 37.6721 55.0516C36.5559 55.4232 35.2537 55.6089 33.7654 55.6089C30.4168 55.6089 27.8123 54.6801 25.8589 52.7295C23.9985 50.779 23.0684 48.2712 23.0684 44.9274C23.0684 43.3483 23.2544 41.9551 23.7195 40.6547C24.1846 39.3544 24.8357 38.2398 25.7659 37.2181C26.696 36.2892 27.7192 35.5462 29.0215 35.0817C30.3237 34.6173 31.719 34.3387 33.3003 34.3387C35.3467 34.3387 37.114 34.8031 38.6023 35.639C40.0906 36.475 41.2068 37.5896 41.8579 38.9828C42.6021 40.3761 42.9741 41.7693 42.9741 43.1626C42.9741 44.4629 42.6021 45.2989 41.8579 45.6704C41.2068 46.042 40.0906 46.2277 38.6953 46.2277ZM28.4634 43.2555H37.9512C37.8582 41.4907 37.3001 40.0974 36.4629 39.2615C35.6257 38.3327 34.5095 37.9611 33.1143 37.9611C31.812 37.9611 30.6958 38.4255 29.8586 39.3544C29.1145 40.1903 28.6494 41.4907 28.4634 43.2555Z" fill="white"/>
<path d="M47.7183 34.8031H48.2764V31.6451C48.2764 30.8091 48.2764 30.1589 48.3694 29.6945C48.3694 29.2301 48.5554 28.7657 48.7415 28.487C48.9275 28.1155 49.2065 27.8369 49.5786 27.6511C49.9507 27.4653 50.4158 27.2796 50.8809 27.2796C51.532 27.2796 52.1831 27.5582 52.6482 28.0226C53.0203 28.3942 53.2063 28.7657 53.2993 29.2301C53.3923 29.6945 53.4854 30.3447 53.4854 31.2735V34.8031H55.5317C56.2759 34.8031 56.834 34.9889 57.2061 35.3604C57.5781 35.7319 57.7642 36.1964 57.7642 36.7537C57.7642 37.4967 57.4851 37.9611 56.927 38.2398C56.3689 38.5184 55.5317 38.7042 54.5085 38.7042H53.4854V48.2712C53.4854 49.1071 53.4854 49.7573 53.5784 50.1288C53.6714 50.5932 53.7644 50.9648 54.0435 51.2434C54.3225 51.5221 54.6946 51.615 55.2527 51.615C55.5317 51.615 55.9968 51.5221 56.4619 51.4292C57.02 51.3363 57.3921 51.2434 57.6711 51.2434C58.1362 51.2434 58.5083 51.4292 58.7874 51.7078C59.1594 52.0794 59.2524 52.4509 59.2524 52.9153C59.2524 53.7513 58.7874 54.4015 57.8572 54.8659C56.927 55.3303 55.6248 55.516 53.8574 55.516C52.1831 55.516 50.9739 55.2374 50.1367 54.6801C49.2996 54.1228 48.7415 53.3797 48.4624 52.4509C48.1834 51.5221 48.0903 50.2217 48.0903 48.5498V38.5184H47.4392C46.6951 38.5184 46.137 38.3327 45.6719 37.9611C45.4858 37.6825 45.2998 37.2181 45.2998 36.6608C45.2998 36.1035 45.4858 35.6391 45.9509 35.2675C46.323 34.9889 46.9741 34.8031 47.7183 34.8031Z" fill="#52AE32"/>
<path d="M64.0894 31.9238C63.3452 31.9238 62.6941 31.738 62.229 31.2736C61.6709 30.8092 61.4849 30.159 61.4849 29.4159C61.4849 28.6728 61.7639 28.0227 62.322 27.5582C62.8801 27.0938 63.4382 26.8152 64.1824 26.8152C64.8335 26.8152 65.4846 27.0009 65.9497 27.4654C66.5078 27.9298 66.6938 28.4871 66.6938 29.323C66.6938 30.159 66.4148 30.7163 65.9497 31.1807C65.3916 31.6451 64.7405 31.9238 64.0894 31.9238ZM66.6938 37.311V52.3581C66.6938 53.3798 66.4148 54.2157 65.9497 54.773C65.4846 55.3303 64.8335 55.609 64.0894 55.609C63.3452 55.609 62.6941 55.3303 62.229 54.773C61.7639 54.2157 61.4849 53.4727 61.4849 52.4509V37.4039C61.4849 36.3821 61.7639 35.6391 62.229 35.0818C62.6941 34.5245 63.3452 34.3387 64.0894 34.3387C64.8335 34.3387 65.4846 34.6174 65.9497 35.0818C66.4148 35.6391 66.6938 36.3821 66.6938 37.311Z" fill="#52AE32"/>
<path d="M90.8784 49.1071C90.8784 49.7573 90.6924 50.4075 90.3203 51.1505C89.9483 51.8936 89.2971 52.6367 88.553 53.2869C87.7158 53.937 86.7856 54.4943 85.4834 54.8659C84.2742 55.2374 82.8789 55.516 81.3906 55.516C78.135 55.516 75.6235 54.5872 73.7632 52.7296C71.9028 50.8719 71.0657 48.364 71.0657 45.206C71.0657 43.0697 71.4377 41.212 72.2749 39.5401C73.1121 37.8682 74.3213 36.6608 75.9026 35.7319C77.4839 34.8031 79.3442 34.3387 81.5767 34.3387C82.9719 34.3387 84.1812 34.5244 85.2974 34.896C86.4136 35.2675 87.4368 35.8248 88.1809 36.3821C88.9251 37.0323 89.5762 37.6825 89.9483 38.3327C90.3203 39.0757 90.5994 39.7259 90.5994 40.2832C90.5994 40.9334 90.3203 41.3978 89.8552 41.8622C89.3901 42.3266 88.832 42.5124 88.1809 42.5124C87.7158 42.5124 87.3438 42.4195 87.0647 42.1409C86.7857 41.9551 86.4136 41.5836 86.1345 41.0263C85.4834 40.0974 84.8323 39.3544 84.0881 38.89C83.344 38.4255 82.5068 38.1469 81.3906 38.1469C79.8093 38.1469 78.6001 38.7042 77.6699 39.9117C76.7398 41.1192 76.2747 42.791 76.2747 44.8345C76.2747 45.8562 76.3677 46.6921 76.6467 47.5281C76.9258 48.364 77.2048 49.0142 77.6699 49.6644C78.135 50.2217 78.6931 50.6861 79.3442 50.9648C79.9954 51.2434 80.7395 51.4292 81.4837 51.4292C82.5068 51.4292 83.437 51.1505 84.1812 50.6861C84.9253 50.2217 85.5764 49.4786 86.1345 48.4569C86.4136 47.8996 86.7857 47.4352 87.1577 47.0637C87.5298 46.6921 87.9949 46.5993 88.553 46.5993C89.2041 46.5993 89.7622 46.8779 90.1343 47.3423C90.6924 47.9925 90.8784 48.5498 90.8784 49.1071Z" fill="white"/>
<path d="M115.156 44.9274C115.156 46.5064 114.877 47.8997 114.412 49.2C113.947 50.5004 113.203 51.615 112.272 52.5438C111.342 53.4727 110.226 54.2157 108.924 54.6802C107.622 55.1446 106.226 55.4232 104.552 55.4232C102.971 55.4232 101.575 55.1446 100.273 54.6802C98.9709 54.2157 97.9478 53.4727 97.0176 52.451C96.0874 51.5221 95.3433 50.4075 94.8782 49.1072C94.4131 47.8068 94.134 46.4135 94.134 44.8345C94.134 43.2555 94.4131 41.7694 94.8782 40.469C95.3433 39.1687 96.0874 38.0541 97.0176 37.1252C97.9478 36.1964 99.064 35.4533 100.366 34.9889C101.668 34.5245 103.064 34.2458 104.645 34.2458C106.226 34.2458 107.715 34.5245 109.017 34.9889C110.319 35.4533 111.435 36.1964 112.365 37.1252C113.296 38.0541 113.947 39.1687 114.505 40.469C114.877 41.9552 115.156 43.3484 115.156 44.9274ZM109.854 44.9274C109.854 42.7911 109.389 41.1192 108.459 40.0046C107.529 38.7971 106.226 38.2398 104.645 38.2398C103.622 38.2398 102.692 38.5185 101.948 39.0758C101.203 39.6331 100.552 40.3761 100.18 41.3979C99.7151 42.4196 99.5291 43.6271 99.5291 45.0203C99.5291 46.4135 99.7151 47.5281 100.18 48.5499C100.552 49.5716 101.203 50.3146 101.948 50.8719C102.692 51.4292 103.622 51.7079 104.645 51.7079C106.226 51.7079 107.529 51.1506 108.459 49.9431C109.389 48.6427 109.854 47.0637 109.854 44.9274Z" fill="white"/>
<path d="M175.079 49.8142C175.319 49.7187 175.474 49.5872 175.546 49.4199C175.845 48.9537 175.977 48.4157 175.906 47.8896C175.858 47.0765 175.369 46.3707 174.556 45.7244C167.039 39.9202 160.431 32.9209 153.955 26.077C148.745 20.6689 143.439 15.0216 137.679 9.97185C137.381 9.74446 136.604 9.01456 135.731 9.43249C134.774 9.81449 134.606 11.1297 134.641 12.433C134.676 13.7364 134.77 15.3627 134.948 17.0248C135.126 19.3805 135.352 21.8558 135.231 23.2906C135.051 24.4026 134.787 25.4785 134.787 25.4785C134.691 25.9328 134.512 26.3512 134.452 26.7219C134.272 27.1403 134.547 27.6546 135.001 27.7506C135.42 27.9302 135.958 28.0621 136.34 28.3254C136.34 28.3254 136.591 28.4332 136.842 28.5409C137.727 29.0198 156.385 39.1121 164.346 43.4219C165.697 44.2 166.629 44.7985 167.597 45.3133C169.964 46.7258 172.33 48.1383 174.577 49.5986C174.745 49.6705 174.828 49.7064 174.996 49.7782C174.96 49.8619 174.996 49.7782 175.079 49.8142ZM136.401 25.8742C136.437 25.7905 136.701 24.7145 136.833 23.483C137.026 21.8809 136.836 19.3219 136.611 16.8466C136.444 15.3877 136.361 13.9647 136.374 12.7809C136.315 11.7645 136.411 11.3102 136.435 11.0233C136.519 11.0592 136.602 11.0951 136.65 11.2147C142.362 16.1449 147.668 21.7922 152.794 27.1644C159.27 34.0082 166.045 41.0794 173.61 47.0032C173.826 47.1947 173.957 47.3502 174.088 47.5058C172.14 46.2729 170.24 45.1596 168.292 43.9267C167.359 43.3282 166.391 42.8134 165.04 42.0353C157.08 37.7255 138.457 27.5496 137.453 27.1184C137.202 27.0107 136.951 26.9029 136.867 26.8669C136.616 26.7592 136.365 26.6514 136.114 26.5436C136.222 26.2926 136.294 26.1252 136.401 25.8742Z" fill="#EAEAEA"/>
<path d="M175.689 49.0851C175.714 48.7982 175.57 48.4394 175.319 48.3316C172.989 46.8354 170.622 45.4229 168.255 44.0104C167.323 43.4119 166.355 42.8971 165.004 42.119C164.921 42.083 154.319 35.8463 137.417 27.2021C137.166 27.0943 136.365 26.6513 135.325 26.3039C134.906 26.1243 134.512 26.3512 134.332 26.7696C134.332 26.7696 134.188 27.1043 133.961 27.4031C132.022 29.8411 124.81 33.4833 124.774 33.567C122.238 34.8567 120.659 35.7644 119.798 36.3856C119.092 36.8754 118.434 37.4848 118.529 38.4175C118.755 39.5058 119.963 39.9251 121.086 40.3085C125.534 41.7223 129.527 42.3467 131.129 42.5391L131.213 42.575C131.213 42.575 131.296 42.611 131.38 42.6469C131.547 42.7187 131.834 42.7429 132.205 42.8029C132.372 42.8747 132.576 42.8629 132.743 42.9348C132.779 42.8511 132.815 42.7674 132.851 42.6837C132.947 42.2294 133.043 41.7751 133.139 41.3208C132.481 41.2367 132.146 41.093 131.859 41.0688C131.776 41.0329 131.692 40.997 131.608 40.9611L131.441 40.8892C129.958 40.6491 125.929 40.1084 121.602 38.6467C120.968 38.2756 120.514 38.1797 120.299 37.9882C120.454 37.8568 120.646 37.6417 121.316 37.2356C122.261 36.6503 123.564 35.9218 125.586 34.9067C125.861 34.7275 133.193 31.0376 135.359 28.3008C135.395 28.2171 135.515 28.1694 135.551 28.0857C136.136 28.3372 136.555 28.5168 136.722 28.5887C153.624 37.2329 164.059 43.3978 164.226 43.4696C165.577 44.2477 166.509 44.8462 167.477 45.361C168.194 45.768 168.876 46.2587 169.509 46.6298C171.386 47.3365 172.761 47.8277 173.215 47.9236C173.299 47.9596 173.837 48.0915 174.351 48.5103C174.649 48.7377 174.865 48.9291 174.912 49.0487C174.864 49.6227 172.425 49.7645 170.631 49.7873C171.289 49.8714 171.827 50.0033 172.365 50.1352C172.735 50.1952 173.106 50.2552 173.512 50.2316C174.577 50.2921 175.426 50.1611 175.701 49.2884C175.701 49.2884 175.737 49.2047 175.689 49.0851Z" fill="#EAEAEA"/>
<path d="M130.414 56.8992C132.638 56.5659 135.903 55.8865 139.778 55.1716C149.261 53.3962 162.248 50.8459 169.016 50.7786C169.1 50.8145 169.22 50.7668 169.303 50.8027C170.08 50.8391 171.503 50.7563 172.723 50.6854C173.453 50.6021 173.979 50.5307 174.421 50.4234C174.744 50.3638 175.665 50.0655 175.785 49.3242C175.833 48.7503 175.403 48.3674 174.937 48.0682C174.339 47.6134 173.837 47.3978 173.55 47.3737C171.1 46.6188 137.759 34.4842 137.137 34.3164C137.053 34.2804 136.432 34.1126 135.607 33.9566C135.607 33.9566 134.782 33.8007 134.256 33.8721C133.287 34.0508 133.023 35.1268 132.927 35.5811C132.843 36.2387 132.771 37.0995 132.627 38.1278C132.542 39.4789 132.469 41.0333 132.145 42.4799C131.666 44.7515 130.384 47.9671 129.354 50.5971C128.576 52.6412 127.929 54.1474 127.737 55.0561C127.605 55.5941 127.676 56.1202 127.987 56.5509C128.381 57.0175 128.883 57.233 129.374 57.2453C129.804 56.9347 130.211 56.9111 130.414 56.8992ZM129.375 55.1648C129.495 54.4235 130.214 52.7499 130.884 50.9568C131.95 48.2432 133.268 44.9438 133.784 42.5886C134.143 41.0583 134.252 39.4202 134.372 37.9854C134.397 37.005 134.565 35.6898 134.661 35.2355C134.865 35.2236 135.032 35.2955 135.235 35.2837C135.893 35.3678 136.395 35.5834 136.479 35.6193C136.73 35.7271 170.274 47.8499 172.975 48.7126C173.059 48.7485 173.143 48.7844 173.227 48.8204C172.904 48.8799 172.581 48.9395 172.09 48.9272C170.99 48.9504 169.854 49.0573 169.161 49.0568C169.077 49.0209 168.958 49.0686 168.874 49.0327C161.986 49.1478 148.916 51.6622 139.396 53.5212C135.605 54.2721 132.376 54.8678 130.152 55.2011C129.71 55.3085 129.423 55.2844 129.339 55.2484C129.339 55.2484 129.339 55.2484 129.375 55.1648Z" fill="#EAEAEA"/>
<path d="M122.211 38.6112C125.536 37.5611 128.981 36.4633 132.305 35.4133L122.211 38.6112Z" fill="#EAEAEA"/>
<path d="M122.139 39.472C121.853 39.4479 121.554 39.2205 121.41 38.8617C121.303 38.4192 121.519 37.9172 121.961 37.8098L132.055 34.6119C132.498 34.5046 133 34.7202 133.107 35.1626C133.214 35.6051 132.999 36.1072 132.556 36.2145L122.462 39.4124C122.343 39.4602 122.259 39.4243 122.139 39.472Z" fill="#EAEAEA"/>
<path d="M123.706 39.7482C126.911 38.7459 130.032 37.7077 133.237 36.7054L123.706 39.7482Z" fill="#EAEAEA"/>
<path d="M123.633 40.609C123.346 40.5849 123.047 40.3576 122.904 39.9987C122.797 39.5562 123.012 39.0542 123.455 38.9469L132.987 35.904C133.429 35.7967 133.931 36.0123 134.039 36.4547C134.146 36.8972 133.93 37.3993 133.488 37.5066L123.956 40.5495C123.836 40.5972 123.753 40.5613 123.633 40.609Z" fill="#EAEAEA"/>
<path d="M127.83 40.5281C129.469 39.9432 131.107 39.3584 132.829 38.8095L127.83 40.5281Z" fill="#EAEAEA"/>
<path d="M127.794 41.3053C127.507 41.2812 127.208 41.0538 127.029 40.7787C126.922 40.3362 127.101 39.9178 127.58 39.7268L132.579 38.0082C133.022 37.9009 133.524 38.1165 133.631 38.559C133.738 39.0015 133.559 39.4198 133.08 39.6108L128.081 41.3294C127.997 41.2935 127.878 41.3412 127.794 41.3053Z" fill="#EAEAEA"/>
<path d="M131.19 41.4749C131.872 41.2721 132.589 40.9856 133.271 40.7827L131.19 41.4749Z" fill="#EAEAEA"/>
<path d="M131.117 42.3357C130.83 42.3116 130.531 42.0842 130.388 41.7254C130.281 41.2829 130.496 40.7809 130.939 40.6735L133.02 39.9814C133.462 39.8741 133.964 40.0896 134.072 40.5321C134.179 40.9746 133.964 41.4767 133.521 41.584L131.44 42.2761C131.32 42.3239 131.201 42.3716 131.117 42.3357Z" fill="#EAEAEA"/>
<path d="M132.958 42.4326C133.054 41.9783 133.15 41.5239 133.246 41.0696C132.792 40.9737 132.338 40.8777 131.883 40.7818C127.962 39.99 124.949 39.3902 122.917 38.8149C122.546 38.7548 122.211 38.6111 121.924 38.587C124.376 37.9549 127.306 37.1318 129.71 36.38C131.396 35.9148 133.118 35.3659 133.441 35.3064C133.441 35.3064 133.645 35.2945 133.848 35.2827C133.944 34.8284 134.171 34.5296 134.41 34.4341C134.614 34.4223 135.104 34.4346 135.475 34.4946C136.216 34.6147 136.802 34.8661 136.885 34.9021C137.555 35.1895 170.848 47.2045 173.299 47.9594C173.382 47.9954 173.92 48.1272 174.434 48.5461C174.733 48.7735 174.948 48.9649 174.996 49.0845C174.972 49.3715 174.29 49.5743 173.357 49.6694C173.812 49.7653 174.302 49.7776 174.84 49.9095L175.235 48.2955C165.983 44.9175 135.642 33.8729 134.937 33.6692C134.483 33.5732 134.112 33.5132 134.112 33.5132L134.028 33.4773L133.945 33.4413C133.945 33.4413 133.335 33.4768 133.299 33.5605C132.773 33.6319 131.529 33.9898 129.245 34.6938C126.638 35.4573 123.432 36.4596 120.897 37.0558C120.335 37.2109 119.928 37.2345 119.689 37.33C119.486 37.3419 119.366 37.3896 119.247 37.4374C118.685 37.5924 118.589 38.0468 118.6 38.25C118.48 38.9913 119.317 39.3506 119.568 39.4584C119.987 39.638 120.572 39.8895 121.397 40.0455C123.179 40.513 125.952 41.2083 129.79 41.9642C130.782 42.192 131.894 42.3721 132.97 42.6358C132.887 42.5999 132.922 42.5162 132.958 42.4326Z" fill="#EAEAEA"/>
</svg>
