<svg width="132" height="132" viewBox="0 0 132 132" fill="none" xmlns="http://www.w3.org/2000/svg">
<g clip-path="url(#clip0)">
<path d="M21.9326 117.287C21.4533 116.807 20.7882 116.531 20.1101 116.531C19.4321 116.531 18.7669 116.807 18.2874 117.287C17.8078 117.767 17.532 118.432 17.532 119.11C17.532 119.788 17.8076 120.453 18.2874 120.932C18.7669 121.412 19.4321 121.688 20.1101 121.688C20.7882 121.688 21.4533 121.412 21.9326 120.932C22.4121 120.453 22.6882 119.788 22.6882 119.11C22.6882 118.432 22.4124 117.766 21.9326 117.287Z" fill="white"/>
<path d="M121.049 47.1637C120.57 46.6839 119.907 46.4083 119.227 46.4083C118.549 46.4083 117.883 46.6839 117.404 47.1637C116.925 47.6432 116.648 48.3083 116.648 48.9864C116.648 49.6644 116.924 50.3296 117.404 50.8089C117.883 51.2884 118.549 51.5645 119.227 51.5645C119.907 51.5645 120.57 51.2887 121.049 50.8089C121.531 50.3296 121.807 49.6644 121.807 48.9864C121.807 48.3083 121.531 47.6432 121.049 47.1637Z" fill="white"/>
<path d="M131.244 0.755133C130.76 0.271734 130.104 0 129.42 0L65.9999 0.00335156C64.5762 0.00335156 63.422 1.15784 63.422 2.58148V9.95414L38.9842 16.5023C37.6088 16.871 36.7926 18.2846 37.1612 19.6597L49.8268 66.9276L38.87 77.8844C37.4755 75.8482 35.1341 74.5091 32.4855 74.5091H7.73632C3.47158 74.5091 0.00219727 77.9787 0.00219727 82.2432V124.266C0.00219727 128.53 3.47158 132 7.73632 132H32.4858C36.1088 132 39.1567 129.495 39.992 126.127L43.0574 128.8C45.4239 130.864 48.4557 132 51.5956 132H129.421C130.844 132 131.999 130.846 131.999 129.422V2.57812C131.998 1.89441 131.727 1.23853 131.244 0.755133ZM35.0634 124.266C35.0634 125.687 33.9069 126.844 32.4853 126.844H7.73606C6.31448 126.844 5.15793 125.687 5.15793 124.266V82.2435C5.15793 80.8219 6.31448 79.6654 7.73606 79.6654H17.5327V109.364C17.5327 110.788 18.6872 111.942 20.1108 111.942C21.5344 111.942 22.6889 110.788 22.6889 109.364V79.6654H32.4855C33.9071 79.6654 35.0637 80.8219 35.0637 82.2435V124.266H35.0634ZM42.8089 20.8155L63.422 15.2921V24.8454L61.6942 25.3084C61.0334 25.4855 60.4706 25.9174 60.1287 26.5096C59.7869 27.1018 59.694 27.8053 59.8712 28.4659C60.8619 32.1631 58.66 35.977 54.9627 36.9677C54.3014 37.1451 53.7375 37.5777 53.3959 38.1712C53.0543 38.7644 52.9623 39.4693 53.141 40.1303L63.1902 77.3425H58.0159L55.3494 66.9103C55.2646 66.5783 55.1161 66.2722 54.9173 66.0062L42.8089 20.8155ZM63.422 36.6684V58.4229L58.7198 41.0115C60.684 39.9973 62.2915 38.4798 63.422 36.6684ZM100.46 126.844H51.5951C49.7015 126.844 47.8728 126.158 46.4456 124.914L40.2197 119.484V83.827L51.4752 72.5714L53.5166 80.5584C53.8084 81.6997 54.8363 82.4979 56.0143 82.4979L106.701 82.501C108.692 82.501 110.311 84.1201 110.311 86.1104C110.311 88.1007 108.692 89.7198 106.701 89.7198H80.7292C79.3056 89.7198 78.1511 90.8743 78.1511 92.2979C78.1511 93.7215 79.3056 94.876 80.7292 94.876H114.771C116.761 94.876 118.38 96.4951 118.38 98.4854C118.38 100.476 116.761 102.095 114.771 102.095H80.7292C79.3056 102.095 78.1511 103.249 78.1511 104.673C78.1511 106.097 79.3056 107.251 80.7292 107.251H109.254C111.245 107.251 112.864 108.87 112.864 110.86C112.864 112.851 111.245 114.47 109.254 114.47H80.7292C79.3056 114.47 78.1511 115.624 78.1511 117.048C78.1511 118.472 79.3056 119.626 80.7292 119.626H100.46C102.451 119.626 104.07 121.245 104.07 123.235C104.07 125.225 102.45 126.844 100.46 126.844ZM126.843 126.844H126.842H108.445C108.945 125.742 109.226 124.521 109.226 123.234C109.226 121.948 108.945 120.727 108.445 119.625H109.254C114.088 119.625 118.02 115.693 118.02 110.86C118.02 109.45 117.683 108.118 117.089 106.937C120.801 105.917 123.536 102.515 123.536 98.4849C123.536 96.5296 122.892 94.7221 121.806 93.2629V60.5877C121.806 59.1641 120.651 58.0096 119.228 58.0096C117.804 58.0096 116.649 59.1641 116.649 60.5877V89.9247C116.044 89.792 115.415 89.7198 114.77 89.7198H114.686C115.186 88.6181 115.466 87.3969 115.466 86.1104C115.466 81.2769 111.534 77.345 106.701 77.345H102.557C106.957 75.4579 110.048 71.0838 110.048 66C110.048 59.1966 104.513 53.6616 97.7098 53.6616C90.9066 53.6616 85.3717 59.1966 85.3717 66C85.3717 71.0838 88.4626 75.4579 92.8629 77.345H78.7701V28.3241C83.3757 27.3204 87.0098 23.6865 88.0132 19.0807H107.406C108.41 23.6865 112.044 27.3204 116.649 28.3241V36.3394C116.649 37.7631 117.804 38.9176 119.227 38.9176C120.651 38.9176 121.805 37.7631 121.805 36.3394V26.0223C121.805 24.5987 120.651 23.4442 119.227 23.4442C115.4 23.4442 112.286 20.3301 112.286 16.5026C112.286 15.0789 111.132 13.9245 109.708 13.9245H85.7117C84.2881 13.9245 83.1336 15.0789 83.1336 16.5026C83.1336 20.3303 80.0197 23.4442 76.1923 23.4442C74.7686 23.4442 73.6141 24.5987 73.6141 26.0223V77.3448H68.5785V5.15909L126.843 5.15625V126.844ZM97.7103 73.1821C93.7501 73.1821 90.5284 69.9603 90.5284 66.0003C90.5284 62.0403 93.7503 58.8181 97.7103 58.8181C101.67 58.8181 104.892 62.04 104.892 66C104.892 69.96 101.671 73.1821 97.7103 73.1821Z" fill="white"/>
</g>
<defs>
<clipPath id="clip0">
<rect width="132" height="132" fill="white"/>
</clipPath>
</defs>
</svg>
