<svg width="820" height="868" viewBox="0 0 820 868" xmlns="http://www.w3.org/2000/svg" fill="none"><path d="M351.795 278.416c-.558.095-1.022.749-1.022.749-5.49 1.511-10.98 3.023-16.934 5.188-2.698 1.035-5.218-.259-6.253-2.957-1.035-2.697.259-5.217 2.957-6.253 5.954-2.165 11.444-3.676 17.493-5.283 2.793-.477 5.313.818 5.694 3.052.94 2.139-.45 4.101-1.935 5.504zM377.494 688.486c2.044-1.498 2.684-4.482.628-6.43-1.499-2.044-4.482-2.685-6.431-.628-9.101 7.301-19.51 13.676-30.205 18.375-2.698 1.035-3.338 4.018-2.399 6.157.94 2.139 4.019 3.338 6.158 2.399 6.417-2.82 12.18-6.102 18.406-10.039 4.646-3.092 9.851-6.279 13.843-9.834zm26.351-27.489c7.413-10.462 13.613-21.292 17.851-33.512.736-2.425-.299-5.122-2.724-5.858-2.425-.736-5.122.299-5.858 2.724-3.871 11.007-9.607 21.183-16.557 30.991-1.389 1.962-.818 5.313 1.144 6.703 1.403 1.485 3.637 1.104 5.218.26l.926-1.308zm-90.439 52.794c-.476-2.793-2.997-4.088-5.789-3.611-4.469.762-8.938 1.524-13.502 1.728-6.798.585-14.25.707-21.334-.384-2.329-.177-4.932 1.416-5.014 4.305-.177 2.329 1.416 4.931 4.305 5.014 7.642.995 15.653.778 23.01.098 5.122-.299 9.591-1.062 14.618-1.919.558-.096 1.117-.191 1.58-.845 1.676-.286 2.507-2.152 2.126-4.386zm114.67-123.034c.233-12.111-1.4-25.054-4.709-37.71-.476-2.793-3.555-3.992-5.694-3.053-2.793.477-3.992 3.556-3.052 5.695 3.118 11.539 4.561 23.365 4.791 34.822-.082 2.888 1.975 4.837 4.863 4.919l2.793-.477c.368-1.212 1.294-2.52 1.008-4.196zm-186.601 119.21c.736-2.425-.3-5.122-2.724-5.858-11.008-3.871-21.647-8.953-31.455-15.903-1.962-1.389-5.313-.818-6.608 1.703-1.39 1.961-.818 5.313 1.702 6.607 10.926 6.759 22.219 12.305 33.321 16.734 1.213.368 2.889.082 3.91-.667l1.854-2.616zm-165.442 98.355c-1.906-11.171-3.349-22.996-4.328-35.476-.477-2.793-2.533-4.741-5.326-4.264-2.793.476-4.741 2.533-4.265 5.326.884 11.92 2.422 24.304 4.423 36.035.477 2.792 2.997 4.087 5.79 3.61.558-.095 1.117-.19 1.58-.844 1.58-.845 2.412-2.711 2.126-4.387zm102.792-135.377c1.948-2.057 1.472-4.85-.027-6.894-8.323-8.352-16.741-17.263-23.483-26.459-1.499-2.044-4.482-2.685-6.526-1.186-2.044 1.498-2.684 4.481-1.186 6.525 7.492 10.219 16.005 19.688 24.887 27.945 1.403 1.485 4.291 1.567 5.871.723l.464-.654zm-108.751 63.39c.328-11.552.561-23.664 1.353-35.87.082-2.888-1.975-4.837-4.304-5.014-2.888-.082-4.837 1.975-5.014 4.304-.696 12.765-1.488 24.972-1.162 36.988-.082 2.888 1.975 4.836 4.863 4.918 1.117-.19 1.676-.285 2.698-1.035.368-1.212 1.295-2.52 1.567-4.291zm338.257-217.512l-2.438-4.183c-5.625-9.387-12.831-17.93-20.5-25.819-2.057-1.948-4.945-2.03-6.894.026-1.948 2.057-2.03 4.946.027 6.894 7.015 7.426 13.567 15.505 19.002 23.775l2.438 4.183c1.498 2.044 4.577 3.243 6.62 1.745 2.603-1.594 3.243-4.577 1.745-6.621zm-333.316 145.39c1.541-11.185 2.986-22.928 4.99-34.766l.368-1.213c.736-2.425-1.416-4.932-3.841-5.668-2.425-.736-4.932 1.416-5.668 3.841l-.368 1.213c-2.004 11.838-4.008 23.677-5.549 34.862-.177 2.329 1.416 4.932 4.304 5.014 1.212.368 2.234-.382 3.351-.572 1.213.368 2.139-.94 2.412-2.711zm61.83-55.386c-5.258-10.599-9.493-21.948-13.075-32.834-1.035-2.697-3.555-3.992-5.694-3.052-2.698 1.035-3.992 3.555-3.052 5.694 3.213 12.098 8.007 23.352 13.36 34.51.94 2.139 4.019 3.338 6.716 2.303l.559-.095c1.485-1.403 2.126-4.387 1.186-6.526zm221.003-136.575c1.39-1.962.818-5.314-1.702-6.608-10.925-6.759-22.777-12.209-34.248-15.426-2.425-.736-5.027.858-5.763 3.283-.736 2.424.858 5.027 3.283 5.763 10.912 3.312 22.11 8.299 31.822 14.69 1.867.831 3.638 1.104 5.123-.299 1.022-.75 1.58-.845 1.485-1.403zm-265.864 122.96c4.62-9.985 10.82-20.815 17.674-31.182 1.39-1.961.818-5.313-1.144-6.703-1.961-1.39-5.313-.818-6.703 1.144-7.317 11.02-13.517 21.85-18.6 32.49-1.294 2.52-.259 5.217 2.261 6.512 1.308.926 3.542.545 4.564-.204 1.022-.749 1.485-1.403 1.948-2.057zm197.586-145.802c.082-2.888-1.975-4.836-4.863-4.918-12.111-.233-24.495 1.305-37.152 4.613-2.793.477-4.087 2.997-3.611 5.79.477 2.793 2.997 4.087 5.79 3.611 11.539-3.118 23.365-4.561 34.917-4.233 1.117-.19 1.676-.286 2.698-1.035 1.58-.844 2.507-2.152 2.221-3.828zm-157.662 86.681c7.699-8.786 16.514-17.763 25.52-25.623 2.044-1.498 2.031-4.945.532-6.988-1.498-2.044-4.945-2.031-6.988-.533-9.006 7.86-17.822 16.837-25.984 26.277-1.948 2.057-1.472 4.85.585 6.798 1.403 1.485 3.733 1.663 5.777.164l.558-.095zm-14.7 4.807c-.884-11.92-.651-24.032.89-35.216.177-2.33-1.416-4.932-4.305-5.014-2.329-.178-4.931 1.416-5.572 4.399-1.35 12.302-2.047 25.067-.509 37.451.477 2.793 2.534 4.742 5.326 4.265.559-.095 1.676-.286 2.14-.94.926-1.307 2.316-3.269 2.03-4.945zm101.341-76.497c-.94-2.139-4.019-3.338-6.158-2.398-10.599 5.257-21.662 11.168-32.44 18.755-2.043 1.499-2.684 4.482-1.186 6.526 1.499 2.043 4.482 2.684 6.526 1.186 10.314-6.933 20.818-12.749 30.859-17.911l.559-.096c2.044-1.498 2.78-3.923 1.84-6.062zm-92.573 6.596c3.871-11.007 8.954-21.646 14.595-32.381 1.295-2.52.26-5.218-1.702-6.608-2.52-1.294-5.218-.259-6.608 1.703-6.104 11.388-11.65 22.681-15.521 33.689-.736 2.424.299 5.122 2.724 5.858 1.213.368 2.888.082 3.91-.667 1.771.273 2.234-.381 2.602-1.594zm34.23-62.173c7.045-9.25 14.648-18.594 23.463-27.571 1.949-2.057 1.472-4.85-.026-6.894-2.057-1.948-4.85-1.472-6.894.027-8.815 8.976-16.882 18.975-23.926 28.225-1.39 1.961-1.377 5.408 1.144 6.703 1.403 1.485 3.637 1.103 5.217.259.559-.095 1.117-.191 1.022-.749zm49.732-52.172c9.006-7.86 18.666-15.256 28.421-22.094 2.044-1.498 2.685-4.482 1.187-6.525-1.499-2.044-4.482-2.685-6.526-1.186-10.219 7.491-19.878 14.888-28.885 22.747-2.043 1.499-2.03 4.945-.532 6.989 1.499 2.044 4.387 2.126 5.872.723-.095-.559-.095-.559.463-.654zm92.907-65.286c-.94-2.139-4.019-3.338-6.158-2.399-11.158 5.353-21.663 11.169-32.725 17.08-2.044 1.499-3.243 4.577-1.745 6.621 1.498 2.044 4.577 3.243 6.621 1.745 10.409-6.375 21.009-11.632 32.167-16.985l.558-.095c1.486-1.403 2.221-3.828 1.282-5.967zM90.221 864.534c-2.602 1.594-5.027.858-6.621-1.744-1.689-3.161-4.318-8.461-7.518-17.112-1.035-2.698.259-5.218 2.957-6.253 2.698-1.035 5.218.259 6.253 2.957 2.165 5.954 4.889 11.812 6.674 15.532 1.594 2.602.953 5.585-1.745 6.62zM713.721 135.618c.927-1.308 1.295-2.521 1.104-3.638-.013-3.447-1.144-6.703-3.296-9.21-2.996-4.087-7.942-6.118-14.372-6.745-58.894-4.898-117.078-19.114-174.049-32.963-45.502-10.632-92.311-22.19-139.474-29.089-2.33-.177-8.855-1.364-12.003 3.772-3.706 5.231-.138 12.67 4.453 19.36 4.59 6.69 10.583 14.864 17.135 22.945 8.895 11.703 18.443 23.87 22.666 31.772 2.819 6.417 5.08 12.93 5.08 12.93 1.035 2.697 1.511 5.49 2.451 7.629.477 2.793 3.651 4.551 6.348 3.516 2.793-.477 6.049-1.607 8.937-1.525l3.352-.572c6.239-.49 137.83-10.868 193.987-15.275 9.686-.503 16.579-.53 23.378-1.115 17.138-.624 34.276-1.249 50.952-1.22l2.792-.476.559-.095zm-282.988 5.742c-.095-.559-2.356-7.071-5.829-13.952-4.413-9.019-14.057-21.744-23.605-33.911-5.803-7.058-11.047-14.211-14.984-20.437-3.746-5.109-4.781-7.807-5.625-9.387.559-.095 1.117-.191 1.771.273 46.51 6.436 93.319 17.994 138.261 28.721 56.972 13.849 116.273 27.874 175.821 33.236 1.771.273 2.984.641 4.196 1.009l-42.383.907c-6.893.027-13.692.612-23.378 1.114-56.156 4.408-187.842 14.228-194.545 15.371l-3.91.667-5.027.858-.763-4.468zM714.444 129.746c-.845-1.581-2.806-2.97-4.482-2.685-17.234.067-34.372.691-51.511 1.316-6.893.026-13.691.611-23.378 1.114-.558.095-77.027 3.369-194.545 15.371-1.676.286-7.357.68-13.964 2.382-2.793.477-4.088 2.997-3.611 5.79 0 0 .381 2.234.203 4.564-1.882 19.29-27.24 62.705-27.145 63.264-8.885 15.312-14.063 25.392-16.461 31.55-2.031 4.945-3.407 10.353.243 14.904 4.863 4.919 12.588 3.026 19.754 1.229 28.011-7.653 50.981-17.895 60.001-22.308l.558-.096 1.117-.19c1.118-.191 2.698-1.035 4.837-1.975l3.256-1.13-.286-1.676-3.105-8.093c-3.719 1.784-5.954 2.166-7.534 3.01l-1.676.286-1.117.19c-8.556 3.759-31.431 14.56-58.979 21.559l-9.032.966c.368-1.212.64-2.983 2.766-7.37 2.957-6.252 7.304-14.467 14.431-26.604.831-1.867 26.653-45.936 28.713-67.556l.272-1.771 7.82-1.334c117.518-12.002 192.87-15.085 193.987-15.276 9.686-.503 16.58-.529 23.378-1.114 5.123-.299 10.34-.04 14.904-.243 12.194-2.655 21.036-4.739 23.733-5.774.559-.095 3.815-1.225 7.915-.775 2.33.177 4.101.45 4.755.913 1.689 3.161-10.573 12.151-19.865 18.335 3.719-1.784 6.975-2.915 10.231-4.045 2.139-.94 4.278-1.88 6.322-3.378 5.763-3.283 9.755-6.838 8.244-12.328 0 0-.095-.559-.749-1.022zM504.373 323.665c10.491-9.263 25.247-23.852 43.069-40.688 43.532-41.342 102.747-98.581 137.871-121.818l1.58-.845c4.183-2.438 11.336-7.682 17.467-12.177 3.529-2.902 6.036-5.054 7.984-7.111 1.485-1.403 5.287-6.075 3.407-10.353-1.689-3.161-5.231-3.706-8.677-3.693-4.66-.355-8.011.217-9.591 1.061-15.355 4.344-230.544 53.703-234.358 54.929-.559.095-4.374 1.321-9.21 3.296 0 0-4.837 1.975-7.344 4.127-4.455 4.209-2.195 10.721-1.159 13.419 1.784 3.719 4.317 8.46 7.041 14.319 4.127 7.343 9.003 15.709 12.204 24.36 5.175 13.488 9.355 34.619 12.868 51.839 2.845 13.311 4.561 23.365 6.631 28.76 1.13 3.256 3.282 5.763 6.361 6.963 3.638 1.103 6.989.532 9.591-1.062 1.199-3.079 3.243-4.577 4.265-5.326zm-11.293-5.546c-1.88-4.278-3.786-15.45-6.345-27.085-3.608-17.779-7.884-39.468-13.154-53.514-3.296-9.21-8.267-18.134-12.49-26.036-3.187-5.205-6.755-12.644-7.791-15.341l3.161-1.689c3.72-1.784 7.071-2.356 7.63-2.452 1.675-.285 217.886-50.394 234.916-55.024l1.676-.285c-1.485 1.403-2.97 2.806-5.573 4.399l-14.864 10.584-1.58.844c-35.588 23.892-95.361 81.226-138.798 123.126-17.263 16.741-32.114 30.772-42.605 40.035-1.949 2.056-3.529 2.901-4.088 2.996l-.095-.558zM399.685 255.875l41.912-50.838-41.912 50.838zM402.218 260.616c-1.58.845-3.91.667-5.871-.723-2.057-1.948-2.629-5.299-.681-7.356l41.912-50.838c1.949-2.057 5.3-2.629 7.357-.68 2.057 1.948 2.629 5.299.681 7.356l-41.913 50.838-1.485 1.403zM411.333 256.762l39.5-48.127-39.5 48.127zM413.866 261.503c-1.581.845-3.91.667-5.872-.722-2.057-1.949-2.629-5.3-.68-7.357l39.5-48.127c1.949-2.057 5.3-2.629 7.357-.681 2.057 1.949 2.629 5.3.68 7.357l-39.5 48.127-1.485 1.403zM435.516 246.888c6.581-8.596 13.162-17.191 20.302-25.882l-20.302 25.882zM437.954 251.07c-1.581.845-3.91.667-5.777-.164-2.057-1.948-2.533-4.741-.68-7.357l20.302-25.882c1.949-2.057 5.3-2.629 7.357-.68 2.057 1.948 2.533 4.741.68 7.356l-20.302 25.883-1.58.844zM456.265 240.473c2.875-3.364 5.655-7.287 8.53-10.652l-8.53 10.652zM458.798 245.215c-1.58.844-3.91.667-5.871-.723-2.057-1.948-2.629-5.3-.681-7.357l8.53-10.652c1.948-2.057 5.3-2.629 7.357-.681 2.057 1.949 2.629 5.3.68 7.357l-8.529 10.653c-.464.654-.927 1.307-1.486 1.403zM468.744 239.494l-3.105-8.093-8.093 3.105c-23.161 9.125-40.926 16.18-53.488 20.048-2.139.94-4.373 1.321-5.954 2.165 10.669-11.592 23.191-25.8 33.206-37.855l15.859-18.227 2.044-1.498c-1.035-2.698-.857-5.027.069-6.335 1.022-.749 3.624-2.343 5.763-3.283 4.278-1.879 8.188-2.546 8.747-2.641 4.468-.763 219.004-50.585 234.358-54.929.558-.096 3.814-1.226 7.915-.776 2.33.178 4.101.45 4.755.914.844 1.58-2.031 4.945-6.582 8.595 2.698-1.035 5.3-2.628 8.556-3.759l-3.391-9.768c-59.754 13.643-255.583 58.55-259.957 59.871-2.697 1.035-4.836 1.974-4.836 1.974l-.559.096-.558.095s-3.066 2.248-2.971 2.806c-2.507 2.152-7.793 8.228-17.345 19.629-11.036 12.805-24.389 28.879-35.617 40.567l-5.381 5.517c-1.022.749-1.486 1.403-1.949 2.057-2.412 2.71-1.377 5.408-.627 6.43 1.879 4.278 7.465 3.325 9.141 3.039 2.792-.476 6.702-1.144 11.539-3.118 10.886-3.582 27.725-9.329 50.327-18.359 5.954-2.165 12.371-4.984 18.884-7.245-.559.095-.654-.463-.75-1.022z" fill="#EAEAEA"/></svg>